<?xml version="1.0" standalone="no"?>
<!DOCTYPE svg PUBLIC "-//W3C//DTD SVG 20010904//EN"
 "http://www.w3.org/TR/2001/REC-SVG-20010904/DTD/svg10.dtd">
<svg version="1.0" xmlns="http://www.w3.org/2000/svg"
 width="1664.000000pt" height="1664.000000pt" viewBox="0 0 1664.000000 1664.000000"
 preserveAspectRatio="xMidYMid meet">
<metadata>
Created by potrace 1.11, written by Peter Selinger 2001-2013
</metadata>
<g transform="translate(0.000000,1664.000000) scale(0.100000,-0.100000)"
fill="#000000" stroke="none">
<path d="M7868 12335 c-2 -2 -69 -5 -150 -8 -81 -3 -152 -8 -158 -12 -5 -3
-10 -1 -10 5 0 6 -5 8 -10 5 -6 -4 -43 -8 -83 -11 -167 -9 -474 -31 -547 -38
-37 -4 -126 -13 -225 -21 -33 -3 -71 -8 -85 -10 -24 -4 -124 -15 -185 -21 -62
-5 -151 -16 -175 -20 -35 -5 -120 -17 -150 -20 -14 -1 -25 -3 -25 -4 0 -1 -13
-3 -30 -5 -65 -9 -111 -15 -130 -19 -11 -2 -40 -7 -65 -10 -25 -3 -56 -8 -70
-10 -14 -3 -53 -10 -87 -16 -35 -5 -73 -12 -85 -14 -13 -2 -39 -7 -58 -11 -19
-3 -48 -8 -65 -10 -16 -2 -30 -4 -30 -5 0 -1 -13 -4 -30 -6 -16 -3 -95 -18
-175 -35 -80 -16 -154 -31 -165 -33 -11 -2 -54 -12 -95 -22 -41 -9 -84 -18
-95 -19 -11 -1 -20 -3 -20 -4 0 -2 -7 -4 -15 -6 -8 -2 -46 -11 -85 -20 -38 -9
-79 -18 -90 -20 -11 -2 -38 -9 -60 -15 -22 -6 -47 -12 -55 -14 -308 -78 -688
-191 -930 -277 -63 -22 -122 -42 -130 -44 -26 -6 -383 -144 -427 -165 -24 -11
-50 -20 -58 -20 -8 0 -15 -4 -15 -8 0 -5 -6 -9 -12 -9 -7 0 -48 -17 -91 -37
-43 -20 -81 -36 -84 -36 -8 0 -145 -65 -308 -146 -82 -41 -154 -74 -159 -73
-5 0 -12 -4 -15 -9 -3 -5 -31 -22 -61 -37 -30 -15 -63 -34 -72 -43 -10 -8 -18
-12 -18 -8 0 4 -12 -1 -27 -12 -16 -10 -81 -50 -147 -88 -65 -38 -129 -76
-142 -84 -118 -74 -183 -117 -204 -133 -14 -10 -65 -47 -115 -83 -113 -80
-132 -94 -154 -113 -10 -9 -33 -27 -51 -41 -18 -14 -38 -30 -44 -35 -6 -6 -27
-23 -46 -39 -153 -125 -355 -325 -490 -486 -30 -36 -57 -67 -60 -70 -3 -3 -27
-34 -53 -70 -27 -36 -53 -72 -60 -80 -24 -31 -105 -156 -128 -200 -13 -24 -30
-50 -36 -58 -7 -7 -13 -17 -13 -22 0 -4 -16 -36 -34 -69 -19 -34 -33 -61 -30
-61 2 0 -6 -21 -19 -47 -13 -27 -39 -88 -57 -138 -18 -49 -35 -97 -38 -105
-13 -36 -60 -239 -67 -290 -3 -25 -8 -58 -11 -75 -14 -86 -19 -279 -9 -405 3
-36 6 -72 6 -80 1 -13 10 -74 25 -157 3 -16 7 -36 10 -45 3 -9 6 -25 8 -35 2
-10 11 -45 20 -78 9 -33 18 -67 20 -75 9 -38 82 -221 119 -299 38 -81 133
-250 146 -261 3 -3 12 -16 19 -30 27 -52 154 -223 252 -339 104 -123 448 -461
470 -461 4 0 10 -3 12 -7 1 -5 28 -28 58 -53 30 -25 60 -49 67 -55 26 -21 40
-32 113 -84 41 -30 77 -57 80 -60 3 -4 33 -24 67 -46 35 -22 63 -43 63 -47 0
-5 5 -8 12 -8 6 0 26 -11 44 -25 18 -14 37 -25 42 -25 6 0 12 -4 14 -8 3 -9
253 -162 264 -162 3 0 18 -8 32 -18 56 -39 422 -228 572 -296 36 -16 97 -44
136 -62 137 -63 570 -236 619 -248 6 -2 24 -8 40 -15 17 -7 77 -28 135 -47 58
-20 114 -39 125 -44 11 -5 88 -30 170 -56 165 -51 182 -56 270 -79 33 -9 67
-19 75 -22 8 -3 24 -8 35 -10 27 -6 37 -9 55 -16 8 -3 26 -8 40 -11 14 -4 87
-22 162 -42 76 -19 147 -37 158 -40 26 -5 46 -10 100 -23 25 -7 56 -14 70 -17
14 -2 33 -7 42 -10 19 -6 42 -10 93 -18 20 -4 41 -8 45 -11 4 -3 25 -7 45 -11
21 -3 47 -8 59 -11 11 -3 45 -9 75 -14 30 -6 57 -12 61 -14 4 -3 29 -7 56 -10
26 -4 51 -8 55 -10 4 -3 24 -7 45 -10 22 -3 53 -9 69 -12 17 -4 35 -7 40 -8 6
0 30 -4 55 -9 25 -4 57 -9 73 -12 15 -2 41 -6 57 -9 70 -12 88 -15 150 -24 66
-11 97 -15 185 -27 28 -3 59 -8 70 -9 52 -9 253 -34 320 -40 33 -3 76 -8 95
-11 36 -4 69 -8 180 -20 36 -4 86 -7 113 -8 26 0 47 -3 47 -6 0 -3 19 -5 43
-6 23 -1 87 -5 142 -9 55 -4 116 -9 135 -10 30 -2 140 -8 360 -20 189 -11 520
-18 810 -18 417 0 739 11 1170 38 87 5 273 21 372 30 78 8 194 18 211 19 9 0
17 3 17 6 0 3 19 5 43 6 43 1 152 11 152 13 0 1 20 4 45 6 25 3 61 7 80 10 19
2 58 7 85 11 28 3 59 7 70 9 11 1 58 8 105 14 47 7 99 14 115 17 59 10 80 13
120 19 23 3 50 7 62 9 46 9 100 18 131 21 18 2 41 6 50 9 9 3 32 8 50 11 58 9
85 14 162 30 14 2 41 7 60 10 19 3 64 12 100 20 36 8 76 17 90 19 21 3 233 52
265 60 6 2 28 6 50 10 22 4 51 12 65 17 14 5 43 12 65 15 22 3 43 8 47 11 9 5
44 14 68 17 9 1 21 6 28 10 7 4 16 5 19 2 3 -3 11 -2 17 3 6 5 25 11 41 14 17
3 69 17 118 30 48 14 90 26 92 26 3 1 10 3 17 5 49 16 355 109 363 110 6 2 17
6 25 9 20 7 122 40 135 43 12 3 78 27 276 100 265 98 283 105 295 114 6 5 19
11 30 13 10 2 33 10 49 17 17 7 32 14 35 15 11 4 61 25 185 80 220 97 648 314
704 357 13 10 28 18 33 18 6 0 30 14 55 30 24 17 46 30 48 30 18 0 418 265
423 281 2 5 8 9 14 9 8 0 118 80 138 100 3 3 23 18 45 35 22 16 42 31 45 34 3
4 21 20 41 36 107 89 153 130 259 235 145 142 220 225 335 370 19 25 40 50 45
57 6 7 10 17 10 23 0 5 4 10 8 10 9 0 107 147 170 256 35 60 124 238 128 254
0 3 6 19 13 35 14 32 72 194 75 210 2 6 8 30 15 55 7 25 15 54 17 65 21 107
35 186 41 233 9 68 8 418 -1 482 -11 78 -15 104 -21 130 -3 14 -8 39 -11 55
-9 45 -9 45 -28 110 -10 33 -19 67 -21 75 -2 8 -20 58 -40 110 -20 52 -37 101
-37 108 -1 6 -5 12 -10 12 -4 0 -8 5 -8 11 0 14 -53 122 -63 130 -5 3 -8 8 -7
10 3 7 -19 53 -45 94 -14 22 -28 47 -32 55 -3 8 -17 29 -30 46 -13 17 -23 34
-23 38 0 4 -5 12 -10 19 -6 7 -50 66 -99 132 -49 66 -101 134 -116 150 -137
157 -255 278 -375 385 -40 36 -80 72 -89 80 -9 8 -59 48 -111 89 -52 41 -100
80 -106 88 -6 7 -14 13 -18 13 -5 0 -75 50 -119 86 -9 8 -21 14 -25 14 -4 0
-19 11 -34 25 -15 14 -31 25 -36 25 -5 0 -17 9 -27 20 -9 10 -20 18 -24 17 -3
-1 -22 10 -42 26 -20 15 -41 27 -47 27 -7 0 -12 5 -12 10 0 6 -7 10 -15 10 -8
0 -15 5 -15 10 0 6 -5 10 -11 10 -6 0 -29 13 -52 28 -23 16 -85 53 -137 82
-52 29 -103 60 -112 68 -10 8 -18 12 -18 7 0 -4 -6 -3 -12 3 -69 55 -819 412
-867 412 -6 0 -11 5 -11 10 0 6 -8 10 -18 10 -10 0 -37 9 -60 20 -22 11 -46
20 -52 20 -5 0 -18 4 -28 9 -31 16 -66 31 -107 45 -22 8 -92 33 -155 56 -181
65 -369 126 -615 200 -33 10 -82 25 -110 33 -39 12 -279 76 -385 103 -91 23
-137 34 -170 40 -14 3 -34 8 -45 11 -11 4 -22 7 -25 8 -9 2 -85 18 -90 20 -3
1 -25 5 -50 10 -25 5 -47 9 -50 10 -14 4 -87 19 -100 20 -8 1 -22 5 -30 7 -8
3 -44 11 -80 18 -77 14 -97 18 -130 25 -14 2 -38 7 -55 10 -16 3 -41 7 -55 10
-14 3 -38 8 -55 11 -16 2 -43 7 -60 10 -16 3 -41 7 -55 9 -14 2 -65 10 -115
18 -113 20 -143 24 -230 37 -66 10 -99 15 -185 25 -19 2 -53 7 -75 11 -22 4
-53 8 -70 9 -112 10 -164 16 -186 20 -13 3 -53 7 -89 10 -36 3 -81 8 -100 11
-19 2 -61 6 -93 9 -31 2 -76 6 -100 9 -56 6 -211 19 -267 22 -25 1 -45 2 -45
3 0 1 -40 4 -90 6 -49 3 -133 7 -185 10 -52 3 -138 8 -190 11 -96 5 -1237 13
-1242 9z m1002 -219 c225 -6 327 -10 515 -22 146 -8 190 -11 285 -19 47 -4
108 -9 135 -11 61 -4 141 -11 215 -19 68 -7 129 -13 195 -20 28 -3 66 -7 85
-10 66 -9 115 -15 170 -20 30 -3 66 -8 80 -10 14 -3 48 -7 75 -10 28 -3 57 -8
65 -10 8 -2 38 -7 65 -10 28 -3 75 -10 105 -15 70 -11 129 -21 155 -25 57 -8
112 -18 235 -41 74 -14 146 -27 160 -29 27 -5 59 -11 105 -21 17 -4 39 -8 50
-10 11 -1 20 -3 20 -4 0 -1 9 -3 20 -5 11 -1 54 -10 95 -19 41 -10 84 -19 95
-21 88 -17 538 -129 578 -144 15 -6 27 -8 27 -5 0 3 6 2 13 -3 6 -4 17 -8 22
-10 6 -1 19 -4 30 -6 97 -22 736 -229 834 -270 14 -6 29 -11 33 -11 3 -1 10
-4 14 -8 4 -5 14 -8 22 -8 8 0 30 -7 50 -16 21 -9 50 -22 67 -29 16 -8 33 -11
37 -9 4 3 8 0 8 -5 0 -6 7 -11 15 -11 8 0 23 -4 33 -10 9 -5 58 -26 107 -46
164 -66 301 -129 545 -251 213 -106 473 -250 478 -265 2 -4 8 -8 12 -8 18 0
381 -237 440 -288 8 -7 47 -36 85 -65 39 -28 72 -54 75 -57 3 -3 32 -27 65
-55 81 -67 97 -81 168 -148 34 -32 78 -73 97 -91 125 -118 400 -452 400 -486
0 -5 4 -10 8 -10 5 0 15 -12 22 -27 8 -16 19 -35 26 -43 28 -36 119 -211 116
-222 -1 -5 2 -8 8 -8 5 0 10 -4 10 -9 0 -5 8 -26 17 -47 9 -22 17 -41 18 -44
3 -10 17 -45 26 -65 28 -66 76 -240 93 -340 2 -11 6 -33 10 -50 17 -90 24
-312 13 -430 -8 -82 -17 -157 -23 -177 -7 -23 -14 -57 -20 -93 -11 -62 -97
-304 -141 -395 -108 -225 -252 -440 -433 -645 -56 -62 -273 -277 -318 -313
-22 -18 -54 -45 -70 -60 -17 -15 -36 -32 -44 -37 -38 -30 -135 -107 -147 -118
-17 -15 -82 -61 -181 -129 -41 -28 -76 -55 -78 -60 -2 -4 -10 -8 -17 -8 -8 0
-20 -6 -27 -13 -17 -16 -79 -56 -176 -114 -463 -277 -959 -510 -1497 -704 -83
-31 -399 -138 -425 -145 -8 -2 -67 -20 -130 -39 -63 -20 -122 -38 -130 -40 -8
-2 -40 -11 -70 -20 -30 -8 -62 -17 -70 -19 -8 -2 -51 -14 -95 -26 -74 -20 -95
-25 -135 -35 -8 -2 -15 -4 -15 -5 0 -1 -11 -4 -25 -6 -14 -3 -43 -9 -65 -15
-42 -12 -64 -17 -105 -25 -14 -3 -52 -12 -85 -21 -33 -8 -69 -17 -80 -19 -11
-2 -29 -6 -40 -9 -28 -6 -154 -33 -190 -40 -16 -4 -37 -8 -45 -9 -8 -1 -28 -6
-45 -9 -16 -4 -45 -9 -64 -12 -19 -3 -37 -7 -40 -9 -3 -2 -30 -7 -58 -11 -29
-3 -66 -10 -83 -15 -17 -5 -31 -9 -33 -8 -2 0 -85 -12 -107 -16 -8 -2 -35 -6
-60 -10 -64 -10 -85 -14 -85 -16 0 -1 -13 -3 -30 -5 -39 -4 -106 -14 -175 -25
-30 -5 -75 -12 -100 -15 -25 -3 -61 -7 -80 -10 -34 -5 -102 -13 -165 -20 -16
-2 -30 -4 -30 -5 0 -1 -16 -3 -35 -5 -19 -1 -55 -5 -80 -9 -25 -3 -72 -8 -105
-11 -33 -3 -76 -8 -95 -10 -19 -3 -64 -7 -100 -10 -36 -3 -88 -8 -116 -10 -27
-3 -79 -7 -115 -10 -35 -3 -98 -8 -139 -10 -41 -3 -104 -7 -140 -10 -510 -39
-1707 -39 -2138 0 -28 3 -96 7 -150 11 -53 3 -115 7 -137 9 -22 2 -75 7 -118
10 -76 5 -125 10 -197 20 -19 3 -64 7 -100 10 -84 7 -171 17 -265 30 -27 4
-63 9 -80 10 -16 2 -46 6 -65 9 -19 3 -55 8 -80 11 -25 3 -67 8 -95 11 -27 3
-57 10 -66 15 -9 4 -18 6 -21 4 -2 -3 -60 4 -129 15 -68 12 -137 23 -154 26
-16 2 -41 7 -55 9 -14 3 -36 8 -50 10 -14 3 -38 7 -55 10 -16 2 -88 16 -160
30 -71 14 -140 28 -152 31 -13 2 -34 6 -48 9 -14 3 -37 7 -52 10 -16 3 -46 11
-68 17 -22 5 -51 12 -65 15 -55 9 -358 82 -380 90 -8 3 -24 8 -35 10 -11 2
-94 24 -185 49 -91 26 -169 47 -175 49 -5 1 -17 5 -25 8 -25 10 -105 29 -106
26 0 -2 -7 1 -15 7 -8 7 -30 15 -49 19 -19 4 -39 10 -45 13 -5 4 -14 7 -20 8
-16 3 -334 111 -395 134 -30 12 -66 25 -80 30 -64 22 -149 53 -185 69 -38 17
-74 32 -85 36 -27 9 -50 18 -75 30 -16 8 -58 25 -92 40 -77 31 -156 67 -249
111 -38 19 -76 34 -82 34 -7 0 -12 5 -12 10 0 6 -3 9 -7 8 -10 -2 -212 99
-341 171 -50 28 -97 51 -102 51 -6 0 -10 5 -10 10 0 6 -4 10 -10 10 -34 0
-587 364 -667 439 -12 12 -25 21 -28 21 -5 0 -43 31 -143 115 -87 73 -155 138
-285 269 -81 83 -147 154 -147 159 0 4 -12 20 -26 34 -70 70 -245 327 -308
453 -21 41 -42 82 -46 90 -33 55 -126 308 -136 370 -3 14 -7 33 -10 42 -3 9
-7 27 -9 40 -33 166 -39 227 -39 378 1 170 8 234 50 439 3 13 19 67 36 120 18
53 32 98 32 101 2 13 63 150 88 198 15 28 25 52 21 52 -3 0 1 8 9 18 8 9 26
37 39 62 13 25 34 59 46 76 13 17 23 34 23 37 0 9 92 141 110 157 3 3 17 21
30 40 83 122 362 412 521 540 24 19 50 42 59 50 16 15 155 123 194 150 11 8
60 43 108 77 48 35 92 63 97 63 5 0 11 3 13 8 6 15 382 247 452 278 17 8 47
24 66 36 40 24 406 208 414 208 3 0 42 17 88 39 119 55 177 81 183 81 2 0 28
11 57 24 101 45 464 185 498 192 13 3 29 9 35 13 8 6 144 52 165 56 3 0 37 12
75 25 39 13 72 25 75 25 3 1 32 10 65 20 33 11 62 19 65 20 3 1 30 9 60 18
106 32 195 59 213 62 10 2 75 20 145 38 117 32 150 40 207 54 40 9 50 12 50
13 0 1 7 3 15 5 8 1 78 17 155 35 77 17 151 34 165 36 14 3 77 16 140 29 63
13 133 28 155 32 22 4 42 8 45 8 3 1 25 5 50 9 67 11 85 14 85 16 0 2 35 8 81
13 23 3 51 8 62 11 11 4 36 9 54 11 18 2 49 7 68 10 19 4 46 8 60 10 14 1 39
5 55 8 17 3 52 8 78 12 27 4 56 8 65 9 10 2 44 7 77 11 33 5 67 9 75 10 8 1
47 6 85 10 39 4 77 9 85 10 8 2 44 6 80 10 36 4 79 9 95 11 17 2 55 6 85 8 30
2 73 7 95 10 22 3 74 8 115 11 41 4 93 8 115 10 22 3 76 7 120 10 44 3 109 7
145 10 227 16 370 22 665 30 126 3 230 7 231 8 4 4 502 -1 724 -7z"/>
<path d="M8037 10784 c-1 -1 -31 -5 -67 -8 -36 -4 -75 -8 -87 -10 -11 -3 -38
-7 -59 -10 -97 -16 -290 -75 -389 -121 -213 -98 -428 -218 -455 -253 -3 -4
-21 -19 -40 -33 -44 -33 -152 -140 -205 -203 -22 -26 -45 -53 -51 -59 -72 -80
-244 -373 -308 -527 -10 -25 -24 -58 -32 -75 -33 -76 -119 -347 -137 -435 -3
-14 -12 -55 -20 -91 -19 -82 -31 -152 -42 -234 -2 -16 -4 -30 -5 -30 -1 0 -3
-16 -5 -35 -2 -19 -6 -51 -9 -72 -26 -165 -27 -633 -2 -778 3 -14 7 -47 11
-75 3 -27 17 -102 32 -165 32 -144 29 -132 35 -150 7 -18 52 -163 53 -170 1
-3 9 -22 18 -44 9 -21 17 -40 17 -42 0 -1 5 -15 12 -31 6 -15 12 -30 13 -33 0
-3 27 -57 58 -120 62 -124 128 -234 192 -321 22 -29 45 -61 50 -70 43 -71 327
-359 354 -359 5 0 11 -3 13 -8 8 -18 93 -75 179 -121 128 -67 305 -131 459
-166 71 -16 173 -35 210 -40 25 -3 58 -8 73 -11 129 -27 367 -32 1020 -23 199
3 230 6 238 20 4 9 6 19 3 22 -3 3 -7 92 -10 198 -8 357 -12 461 -19 467 -3 3
-236 7 -518 8 -458 1 -576 5 -627 19 -8 2 -28 7 -45 10 -16 2 -39 7 -50 9 -36
8 -169 54 -210 72 -22 10 -42 19 -45 20 -35 12 -70 30 -70 36 0 4 -5 8 -11 8
-21 0 -139 91 -210 162 -67 67 -199 228 -199 242 0 4 -9 20 -20 36 -11 17 -28
42 -38 58 -37 55 -145 311 -157 372 -2 8 -8 35 -15 60 -7 25 -14 54 -16 65 -2
11 -6 31 -9 45 -2 14 -7 39 -10 55 -3 17 -7 41 -10 55 -4 22 -18 248 -17 275
0 6 3 71 7 145 6 134 12 215 15 215 1 0 3 20 5 45 14 150 83 478 109 509 6 8
9 15 7 15 -13 3 58 173 113 271 67 120 170 250 286 361 106 100 131 121 192
161 36 24 71 43 77 43 6 0 11 5 11 12 0 6 3 9 6 5 4 -3 19 0 35 9 46 24 169
65 226 76 5 1 24 5 43 10 19 4 51 11 70 14 19 3 46 7 60 10 102 18 303 22 535
11 72 -4 193 -9 270 -12 77 -4 157 -7 178 -9 l37 -2 -2 344 -3 345 -60 4 c-33
2 -66 4 -72 4 -27 -2 -41 -1 -128 3 -204 11 -831 26 -838 20z"/>
<path d="M10425 10367 c0 -190 2 -348 5 -350 3 -3 43 -8 90 -11 47 -4 103 -9
125 -11 22 -2 73 -6 113 -9 40 -3 80 -7 90 -10 9 -2 58 -7 107 -11 50 -3 108
-8 130 -11 22 -2 67 -6 100 -9 33 -2 83 -7 110 -10 28 -2 79 -7 115 -10 36 -4
81 -8 100 -10 19 -1 71 -6 115 -10 44 -5 88 -9 99 -10 20 -2 19 87 30 -1517 2
-295 6 -541 10 -546 3 -6 3 -13 -1 -15 -9 -6 -8 -100 1 -115 3 -6 2 -13 -4
-17 -6 -4 -8 -11 -4 -16 3 -5 8 -335 10 -732 3 -397 6 -722 7 -724 2 -2 149
31 242 53 11 3 29 7 40 9 11 2 30 6 43 9 32 9 45 12 172 40 63 14 131 30 150
35 19 6 48 13 63 16 l28 6 -4 980 c-3 539 -8 983 -11 986 -3 3 -1 14 4 24 7
12 7 20 0 24 -7 4 -7 13 0 26 7 12 7 26 2 37 -5 9 -6 26 -2 37 4 11 4 28 -1
37 -6 10 -5 19 1 23 6 4 8 11 4 16 -3 6 -7 287 -8 625 l-3 616 56 -7 c31 -3
76 -8 101 -10 25 -2 45 -4 45 -5 0 -1 18 -3 40 -4 46 -4 151 -15 210 -23 22
-3 54 -6 70 -8 57 -5 160 -16 190 -20 17 -2 59 -7 95 -10 36 -3 81 -8 100 -11
19 -2 58 -6 85 -9 28 -2 70 -6 95 -10 25 -3 65 -8 90 -10 25 -2 66 -7 93 -10
l47 -6 0 251 c0 137 -3 250 -7 251 -5 0 -15 2 -23 4 -8 1 -31 5 -50 9 -19 3
-46 8 -60 11 -14 3 -38 8 -55 10 -16 3 -37 8 -46 11 -10 2 -30 6 -45 8 -16 2
-63 11 -104 19 -41 9 -93 18 -115 22 -22 3 -48 8 -58 11 -18 6 -45 11 -97 18
-14 2 -41 7 -60 11 -19 4 -44 9 -55 11 -30 5 -77 14 -105 20 -14 3 -38 8 -55
10 -16 2 -39 6 -50 8 -11 2 -58 11 -105 20 -47 8 -101 18 -120 22 -19 3 -45 8
-57 9 -12 2 -34 6 -50 9 -15 3 -41 8 -58 11 -16 3 -41 7 -55 10 -31 6 -147 26
-177 30 -12 2 -34 6 -50 9 -51 11 -78 16 -112 21 -18 2 -41 6 -50 9 -9 3 -38
7 -65 11 -27 3 -52 8 -55 9 -3 2 -28 7 -56 10 -27 4 -61 8 -75 11 -14 2 -41 7
-60 9 -19 3 -46 8 -60 10 -43 8 -163 26 -200 31 -19 2 -46 6 -60 9 -14 3 -46
8 -71 10 -26 3 -57 7 -70 10 -13 3 -46 8 -74 11 -27 3 -63 8 -80 10 -42 6
-111 14 -170 20 -27 3 -63 7 -80 10 -16 3 -55 7 -85 10 -30 3 -68 7 -85 10
-16 2 -73 6 -125 10 l-95 7 0 -345z"/>
<path d="M6436 10683 c-1 -1 -60 -5 -131 -8 -72 -4 -166 -8 -210 -10 -44 -2
-147 -7 -230 -10 -82 -4 -166 -7 -185 -8 -30 -2 -41 -10 -84 -67 -27 -36 -58
-74 -68 -85 -9 -11 -46 -57 -80 -101 -115 -149 -272 -349 -278 -354 -3 -3 -37
-45 -75 -95 -37 -49 -77 -98 -87 -108 -10 -10 -18 -21 -18 -25 0 -4 -15 -23
-33 -43 -17 -19 -48 -56 -67 -80 -97 -126 -286 -343 -450 -518 -43 -46 -259
-276 -330 -351 -114 -122 -227 -237 -238 -244 -8 -5 -11 17 -11 81 0 48 -3
313 -6 588 -3 275 -7 636 -9 803 -2 166 -5 304 -7 307 -3 2 -56 -12 -119 -31
-63 -19 -122 -37 -130 -39 -43 -12 -124 -36 -200 -60 -109 -34 -154 -47 -270
-81 -111 -32 -119 -36 -118 -72 0 -15 -1 -31 -2 -37 -1 -5 -2 -12 -1 -15 7
-17 7 -70 1 -70 -4 0 -4 -19 0 -43 3 -24 3 -55 -1 -69 -4 -14 -3 -31 1 -38 4
-7 4 -27 0 -46 -5 -19 -4 -37 1 -40 5 -3 7 -10 3 -15 -3 -6 -8 -400 -10 -877
-2 -477 -6 -1154 -8 -1505 -3 -583 -2 -638 13 -646 9 -5 19 -9 24 -10 4 -1 8
-1 10 -2 1 0 10 -2 19 -4 10 -2 48 -13 85 -25 38 -12 73 -23 78 -24 6 -2 30
-9 55 -16 25 -8 47 -14 50 -15 3 -1 30 -9 61 -19 31 -9 66 -18 77 -21 11 -2
29 -8 40 -14 10 -5 29 -12 43 -14 13 -2 31 -7 39 -10 46 -18 224 -68 247 -70
l26 -2 3 310 c2 171 6 486 8 700 2 215 5 475 6 580 l1 190 112 -116 c96 -100
255 -266 427 -448 121 -129 261 -279 280 -301 12 -14 43 -47 68 -75 65 -68
179 -204 363 -430 157 -194 173 -213 199 -245 8 -10 29 -35 45 -56 17 -21 54
-67 83 -103 29 -37 63 -79 75 -95 12 -15 27 -33 32 -40 6 -6 33 -40 60 -76 28
-36 55 -69 61 -75 5 -5 23 -28 39 -50 39 -54 70 -78 103 -81 51 -4 157 -14
197 -19 22 -2 65 -7 96 -9 31 -3 78 -8 105 -10 27 -3 74 -8 104 -11 30 -3 71
-7 90 -9 19 -2 67 -7 105 -11 39 -3 88 -8 110 -10 204 -23 245 -26 245 -18 0
5 -17 27 -37 50 -21 22 -78 90 -128 150 -49 59 -98 117 -109 128 -10 11 -30
36 -45 55 -14 19 -31 40 -37 45 -7 6 -48 54 -93 108 -44 53 -118 141 -162 195
-45 53 -100 119 -123 146 -23 28 -51 61 -63 75 -13 14 -26 31 -30 36 -5 6 -40
48 -79 95 -70 85 -255 311 -277 340 -14 18 -176 210 -192 226 -5 6 -28 33 -50
58 -22 26 -56 65 -75 86 -19 21 -60 66 -90 101 -58 67 -237 266 -254 285 -6 6
-42 46 -81 90 -38 43 -81 90 -95 105 -14 15 -37 40 -51 57 l-27 29 46 49 c61
66 112 122 207 229 44 49 87 96 95 105 14 15 109 123 153 174 10 12 40 46 67
76 27 30 58 66 70 80 40 47 124 143 135 154 6 6 40 47 75 91 36 44 67 82 70
85 4 4 52 64 95 118 5 7 15 18 20 25 6 7 44 55 85 107 41 52 77 97 80 100 3 3
37 46 75 95 38 50 74 95 80 101 29 32 55 65 55 69 0 5 27 39 60 75 8 9 20 24
25 32 13 21 297 381 305 388 4 3 26 32 50 65 24 33 53 68 65 78 19 17 15 17
-113 15 -74 -2 -135 -4 -136 -5z"/>
<path d="M11396 8233 c-1 -1 -89 -3 -196 -5 l-195 -3 -60 -81 c-33 -45 -69
-94 -80 -109 -11 -16 -31 -43 -45 -61 -14 -17 -33 -43 -42 -56 -38 -54 -483
-664 -491 -673 -4 -5 -49 -66 -98 -135 -50 -69 -98 -134 -107 -146 -9 -11 -21
-28 -27 -36 -5 -9 -34 -49 -62 -89 l-53 -73 -1 35 c-1 19 -1 38 1 44 2 11 11
744 13 1109 l2 249 -45 -1 c-25 0 -126 -4 -225 -8 -99 -4 -202 -7 -230 -8 -27
0 -53 -5 -57 -11 -4 -5 -8 -167 -8 -360 -5 -1771 -4 -1940 5 -1938 6 1 37 4
70 8 33 3 76 8 96 11 20 3 59 7 85 10 27 3 67 7 89 9 22 2 69 7 105 11 38 3
73 13 83 23 11 9 44 53 74 99 31 46 61 89 67 95 6 7 29 39 51 71 22 33 46 65
53 73 7 7 10 13 7 13 -4 0 5 15 19 33 34 41 35 43 71 97 16 25 32 47 35 50 3
3 30 41 59 85 30 44 63 91 74 105 15 20 161 228 217 310 6 8 33 47 61 85 27
39 60 86 73 105 13 19 62 91 110 160 l87 125 0 -65 c-1 -36 -1 -72 0 -80 0 -8
-3 -177 -6 -375 -4 -198 -8 -451 -8 -562 -1 -112 -5 -203 -9 -203 -4 0 -5 -6
-2 -13 3 -8 6 -27 7 -43 2 -21 8 -29 21 -27 23 2 89 11 134 18 17 3 44 7 60 9
15 2 38 7 52 10 14 3 41 8 60 11 19 2 46 6 60 9 14 3 45 8 69 11 25 3 55 8 67
11 l23 6 -2 1031 -2 1031 -53 0 c-30 1 -55 0 -56 -1z"/>
</g>
</svg>
