<svg width="151" height="145" viewBox="0 0 151 145" fill="none" xmlns="http://www.w3.org/2000/svg">
<path d="M59.2582 145V128.981C59.2582 118.359 40.1919 112.961 30.1291 112.961C20.0663 112.961 1 118.359 1 128.981V145" stroke="#0B4275" stroke-width="2" stroke-miterlimit="10" stroke-linejoin="round"/>
<path d="M30.1294 103.385C37.7206 103.385 43.1933 98.1608 43.1933 90.4994V84.0569C43.1933 76.5696 37.7206 71.1718 30.1294 71.1718C22.5382 71.1718 17.0654 76.3954 17.0654 84.0569V90.4994C17.0654 98.1608 22.5382 103.385 30.1294 103.385Z" stroke="#0B4275" stroke-width="2" stroke-miterlimit="10" stroke-linejoin="round"/>
<path d="M107.983 48.8839L78.6777 74.48L65.7903 55.3265" stroke="#0B4275" stroke-width="2" stroke-miterlimit="10" stroke-linejoin="round"/>
<path d="M78.6775 20.1537V32.8647" stroke="#E5231E" stroke-width="2" stroke-miterlimit="10" stroke-linejoin="round"/>
<path d="M130.581 71.3456H117.693" stroke="#0B4275" stroke-width="2" stroke-miterlimit="10" stroke-linejoin="round"/>
<path d="M78.6775 122.538V109.652" stroke="#0B4275" stroke-width="2" stroke-miterlimit="10" stroke-linejoin="round"/>
<path d="M21.1252 61.769C25.7153 34.6058 49.7247 13.7111 78.6773 13.7111C110.984 13.7111 137.112 39.4812 137.112 71.3458C137.112 103.21 110.984 128.981 78.6773 128.981C75.323 128.981 72.1453 128.632 68.9676 128.11" stroke="#FFB800" stroke-width="2" stroke-miterlimit="10" stroke-linejoin="round"/>
<path d="M7.35571 71.3458C7.35571 32.5163 39.3094 1 78.6778 1C118.046 1 150 32.5163 150 71.3458C150 110.175 118.046 141.692 78.6778 141.692C75.3236 141.692 72.1459 141.517 68.9681 140.995" stroke="#0B4275" stroke-width="2" stroke-miterlimit="10" stroke-linejoin="round"/>
</svg>
