<svg width="399" height="350" viewBox="0 0 399 350" fill="none" xmlns="http://www.w3.org/2000/svg">
<path d="M2 1H1V2V348V349H2H348H349V348V2V1H348H2Z" fill="white" stroke="url(#paint0_linear)" stroke-width="2"/>
<g opacity="0.46">
<path opacity="0.15" d="M34.5486 191.664L244.939 296.947C256.338 302.65 274.846 302.65 286.245 296.947L388.713 245.685C400.112 239.983 400.112 230.724 388.713 225.021L178.323 119.738C166.924 114.035 148.416 114.035 137.017 119.738L34.5486 171C23.1496 176.702 23.1496 185.961 34.5486 191.664Z" fill="#00638E"/>
<path opacity="0.15" d="M37.9199 190.437L245.675 294.372C256.952 300.013 275.215 300.013 286.43 294.372L387.611 243.723C398.887 238.082 398.887 228.945 387.611 223.304L179.856 119.37C168.579 113.728 150.316 113.728 139.101 119.37L37.9199 170.018C26.6435 175.66 26.6435 184.796 37.9199 190.437Z" fill="#00638E"/>
<path opacity="0.46" d="M35.7138 190.499L246.105 295.782C257.504 301.485 276.012 301.485 287.411 295.782L389.879 244.52C401.278 238.818 401.278 229.558 389.879 223.856L179.488 118.572C168.089 112.87 149.581 112.87 138.182 118.572L35.7138 169.834C24.3149 175.537 24.3149 184.796 35.7138 190.499Z" fill="#9FEDEB"/>
<path opacity="0.46" d="M35.0998 188.23L245.491 293.513C256.89 299.216 275.398 299.216 286.797 293.513L389.265 242.251C400.664 236.549 400.664 227.29 389.265 221.587L178.874 116.304C167.475 110.601 148.967 110.601 137.568 116.304L35.0998 167.566C23.7008 173.329 23.7008 182.527 35.0998 188.23Z" fill="white"/>
<g opacity="0.46">
<path opacity="0.46" d="M139.714 159.349C139.714 159.349 42.9455 169.344 95.773 203.559C155.832 242.435 225.39 217.662 202.899 247.34C182.368 274.382 282.937 290.876 313.518 258.132C344.099 225.388 290.414 199.206 290.414 199.206C290.414 199.206 218.097 200.616 219.568 186.574C221.039 172.471 289.678 178.603 289.678 178.603C289.678 178.603 200.938 140.892 139.714 159.349Z" fill="#B0F7F0"/>
<path opacity="0.46" d="M169.083 194.055C132.157 194.004 102.242 178.973 102.268 160.483C102.293 141.993 132.249 127.045 169.176 127.096C206.103 127.146 236.017 142.177 235.991 160.668C235.966 179.158 206.01 194.106 169.083 194.055Z" fill="#93E5E1"/>
<path opacity="0.46" d="M348.249 244.581C334.033 244.562 322.517 238.781 322.527 231.669C322.537 224.557 334.069 218.808 348.285 218.828C362.5 218.847 374.016 224.628 374.006 231.74C373.997 238.852 362.465 244.601 348.249 244.581Z" fill="#B0F7F0"/>
<path opacity="0.46" d="M104.23 196.692C81.4178 196.692 62.9245 187.44 62.9245 176.027C62.9245 164.615 81.4178 155.363 104.23 155.363C127.043 155.363 145.536 164.615 145.536 176.027C145.536 187.44 127.043 196.692 104.23 196.692Z" fill="#D4FFFB"/>
<path opacity="0.46" d="M173.237 237.284C160.782 237.284 150.684 232.233 150.684 226.002C150.684 219.771 160.782 214.719 173.237 214.719C185.693 214.719 195.79 219.771 195.79 226.002C195.79 232.233 185.693 237.284 173.237 237.284Z" fill="#D4FFFB"/>
<path opacity="0.46" d="M253.643 207.851C233.809 207.851 217.73 199.808 217.73 189.885C217.73 179.963 233.809 171.919 253.643 171.919C273.477 171.919 289.556 179.963 289.556 189.885C289.556 199.808 273.477 207.851 253.643 207.851Z" fill="#D4FFFB"/>
</g>
<path opacity="0.46" d="M266.083 297.683C273.866 297.683 281.588 296.211 287.533 293.268L388.714 242.619C394.965 239.492 398.458 235.138 398.458 230.356C398.458 225.573 395.027 221.219 388.714 218.092L180.959 114.157C169.131 108.271 149.887 108.271 138.121 114.157L36.8781 164.745C30.627 167.872 26.521 172.778 26.521 177.561C26.521 182.343 30.5657 186.206 36.8781 189.334L244.634 293.268C250.578 296.211 258.3 297.683 266.083 297.683ZM159.509 114.28C166.495 114.28 173.543 115.629 178.875 118.266L386.631 222.2C391.166 224.469 393.801 227.412 393.801 230.294C393.801 233.176 391.166 236.119 386.631 238.388L285.449 289.037C274.786 294.372 257.442 294.372 246.779 289.037L39.023 185.103C34.488 182.834 31.8527 179.891 31.8527 177.009C31.8527 174.127 34.488 171.183 39.023 168.915L140.204 118.266C145.475 115.629 152.461 114.28 159.509 114.28Z" fill="#CAFFFE"/>
</g>
<path opacity="0.37" d="M241.448 188.475L134.873 133.657L82.475 155.241L125.803 179.4L116.794 186.084L111.647 189.947L106.989 188.352L96.2641 194.975L89.8291 198.961V204.663L91.5451 207.668L109.44 216.559C111.156 217.54 113.24 217.54 115.262 217.54L134.935 207.729C135.731 206.073 136.344 204.908 136.344 203.743L131.442 199.942L124.823 195.895L140.205 190.008L151.482 195.588L166.435 191.97L199.345 209.507L241.448 188.475Z" fill="#33B3C4"/>
<path d="M195.913 154.137L195.974 203.743C195.974 204.172 196.28 204.602 196.955 204.97C199.1 206.073 202.777 205.276 202.777 203.743L202.715 154.137C202.715 155.67 199.038 156.467 196.893 155.363C196.28 155.057 195.913 154.566 195.913 154.137Z" fill="#33B3C4"/>
<path d="M226.923 137.581L226.985 187.923C226.985 188.352 227.291 188.843 227.965 189.149C229.314 189.824 231.459 189.824 232.746 189.149C233.42 188.781 233.726 188.352 233.726 187.923L233.665 137.581C233.665 138.01 233.358 138.501 232.684 138.807C231.336 139.482 229.191 139.482 227.904 138.807C227.291 138.501 226.923 138.071 226.923 137.581Z" fill="#33B3C4"/>
<path d="M194.135 167.872L246.043 142.118L132.299 85.951L80.3906 111.766L194.135 167.872Z" fill="#DCFFFC"/>
<path d="M80.3909 111.766L194.135 167.872L246.044 142.118V144.264L194.074 170.079L80.3909 113.912V111.766Z" fill="#63F2FF"/>
<path d="M141.799 163.764L135.119 165.235L126.723 166.462L125.742 171.061L127.581 177.192L130.951 177.622L136.651 174.31C136.651 174.31 147.131 170.877 147.56 169.466C148.05 167.995 141.799 163.764 141.799 163.764Z" fill="#0A3075"/>
<path d="M100.922 148.496L108.521 145L124.578 138.501C124.762 138.317 136.957 140.769 136.957 140.769L140.512 167.259L133.035 171.49L128.193 170.386L127.764 154.566C127.764 154.566 109.992 161.004 104.783 160.514C95.4061 159.594 100.922 148.496 100.922 148.496Z" fill="#0A3075"/>
<path d="M130.583 199.328C131.074 199.144 131.625 199.144 132.238 199.512C133.709 200.371 134.935 202.64 134.935 204.663C134.935 205.767 134.567 206.932 133.954 207.238L129.787 209.323L126.293 201.904L130.583 199.328Z" fill="#002B6A"/>
<path d="M125.376 203.989C125.376 205.951 126.602 208.281 128.072 209.139C129.543 209.998 130.769 209.078 130.769 207.116C130.769 205.154 129.543 202.823 128.072 201.965C126.54 201.107 125.376 202.026 125.376 203.989Z" fill="#11487F"/>
<path d="M127.029 204.97C127.029 205.706 127.458 206.625 128.071 206.932C128.622 207.239 129.113 206.932 129.113 206.135C129.113 205.399 128.684 204.479 128.071 204.173C127.458 203.866 127.029 204.173 127.029 204.97Z" fill="#002B6A"/>
<path d="M101.411 199.328C100.921 199.144 100.37 199.144 99.7568 199.512C98.2859 200.371 97.0602 202.639 97.0602 204.663C97.0602 205.767 97.3054 206.87 97.9182 207.177L102.269 209.323L105.763 201.904L101.411 199.328Z" fill="#002B6A"/>
<path d="M106.621 203.988C106.621 205.951 105.395 208.281 103.925 209.139C102.454 209.998 101.228 209.078 101.228 207.116C101.228 205.154 102.454 202.823 103.925 201.965C105.457 201.107 106.621 202.026 106.621 203.988Z" fill="#11487F"/>
<path d="M104.966 204.97C104.966 205.706 104.537 206.625 103.924 206.932C103.372 207.239 102.882 206.932 102.882 206.135C102.882 205.399 103.311 204.479 103.924 204.173C104.537 203.866 104.966 204.173 104.966 204.97Z" fill="#002B6A"/>
<path d="M125.865 184.735C125.436 184.551 124.946 184.551 124.395 184.919C123.108 185.655 122.004 187.739 122.004 189.456C122.004 190.437 122.311 191.419 122.862 191.725L126.601 193.626L129.726 187.004L125.865 184.735Z" fill="#002B6A"/>
<path d="M130.522 188.904C130.522 190.683 129.48 192.706 128.132 193.442C126.845 194.178 125.742 193.381 125.742 191.664C125.742 189.885 126.784 187.862 128.132 187.126C129.48 186.329 130.522 187.126 130.522 188.904Z" fill="#11487F"/>
<path d="M129.051 189.763C129.051 190.437 128.622 191.235 128.132 191.48C127.641 191.787 127.212 191.48 127.212 190.805C127.212 190.131 127.641 189.334 128.132 189.089C128.622 188.782 129.051 189.089 129.051 189.763Z" fill="#002B6A"/>
<path d="M105.396 184.735C105.825 184.551 106.315 184.551 106.867 184.919C108.154 185.655 109.257 187.739 109.257 189.456C109.257 190.437 108.95 191.48 108.399 191.725L104.66 193.565L101.535 186.942L105.396 184.735Z" fill="#002B6A"/>
<path d="M100.739 188.904C100.739 190.683 101.78 192.706 103.129 193.442C104.416 194.178 105.519 193.381 105.519 191.664C105.519 189.885 104.477 187.862 103.129 187.126C101.78 186.329 100.739 187.126 100.739 188.904Z" fill="#11487F"/>
<path d="M102.209 189.763C102.209 190.438 102.638 191.235 103.128 191.48C103.619 191.787 104.048 191.48 104.048 190.806C104.048 190.131 103.619 189.334 103.128 189.089C102.638 188.782 102.209 189.089 102.209 189.763Z" fill="#002B6A"/>
<path d="M130.46 184.796L129.97 186.942L121.145 192.645L119.919 189.947L130.46 184.796Z" fill="#168CA8"/>
<path d="M115.752 189.149L118.08 186.267L126.905 183.018L130.46 184.796L119.858 190.192L115.752 189.149Z" fill="#33B3C4"/>
<path d="M101.043 184.796L101.534 186.942L110.359 192.645L111.584 189.947L101.043 184.796Z" fill="#168CA8"/>
<path d="M115.752 189.15L113.301 186.268L104.721 182.957L101.044 184.796L111.646 190.192L115.752 189.15Z" fill="#33B3C4"/>
<path d="M135.24 201.168L134.26 203.314L130.154 205.399L115.752 195.956V191.419L135.24 201.168Z" fill="#168CA8"/>
<path d="M119.429 189.15L135.24 201.168L130.767 203.375L115.752 193.135V189.15H119.429Z" fill="#33B3C4"/>
<path d="M96.8762 201.414L98.0406 203.744L101.35 205.399L115.752 195.956V191.419L96.8762 201.414Z" fill="#168CA8"/>
<path d="M112.136 189.15L96.8762 201.413L100.737 203.375L115.752 193.135V189.15H112.136Z" fill="#33B3C4"/>
<path d="M115.751 192.951C118.019 192.951 119.857 191.234 119.857 189.088V170.877H111.584V189.088C111.645 191.173 113.484 192.951 115.751 192.951Z" fill="#33B3C4"/>
<path d="M98.8376 158.491L113.117 150.274C114.833 149.293 116.917 149.293 118.633 150.274L131.441 157.694L137.999 158.859V164.561C137.999 165.726 137.447 166.891 136.283 167.566L116.61 177.377C114.894 178.358 112.811 178.358 111.095 177.377L93.1994 168.486C92.035 167.811 91.4834 166.646 91.4834 165.481V159.778L98.8376 158.491Z" fill="#B33939"/>
<path d="M136.282 155.854L118.632 144.51C116.916 143.529 114.833 143.529 113.117 144.51L93.1377 156.774C90.8089 158.123 90.8089 161.434 93.1377 162.722L111.033 171.551C112.749 172.532 114.833 172.532 116.549 171.551L136.282 161.863C138.55 160.514 138.55 157.203 136.282 155.854Z" fill="#FF5252"/>
<path d="M100.921 148.496L108.52 145.001L124.577 138.501L129.602 136.845L136.895 140.77L127.641 154.566C127.641 154.566 109.869 161.005 104.659 160.514C95.4055 159.594 100.921 148.496 100.921 148.496Z" fill="#0A3075"/>
<path d="M170.847 181.239L167.353 179.155L160.122 179.4L156.506 177.99L147.865 178.541L146.455 183.079L146.884 186.942L147.804 189.517L151.726 191.234L165.699 187.984L171.214 184.612L170.847 181.239Z" fill="#0A3075"/>
<path d="M145.17 149.661L150.256 149.047L157.672 179.768L156.324 183.018L149.705 184.551L145.783 183.202L140.451 155.057L145.17 149.661Z" fill="#174C99"/>
<path d="M99.2661 162.721L95.0988 150.458L97.2438 133.534L114.22 142.364L119.674 150.703L143.085 146.656L150.255 149.047L150.5 151.132L149.152 159.717L143.023 161.74L141.614 159.717L119.919 167.443H113.423L99.2661 162.721Z" fill="#174C99"/>
<path d="M202.348 127.831C202.348 128.506 201.919 129.242 201 129.732C199.161 130.774 196.219 130.774 194.442 129.732C193.523 129.242 193.094 128.506 193.094 127.831V127.709L192.604 127.954C192.175 128.199 191.929 127.893 192.052 128.015L190.826 127.341C190.704 127.279 190.581 127.095 190.581 126.85V123.294C190.581 122.803 190.949 122.19 191.378 121.945L193.033 120.964V118.143C193.033 118.327 193.216 116.917 194.381 116.242C196.219 115.2 199.161 115.2 200.938 116.242C201.858 116.794 202.287 118.143 202.287 118.143L202.348 127.831ZM193.033 125.685V122.926L192.726 123.11C192.481 123.232 192.358 123.539 192.358 123.784V126.053L193.033 125.685Z" fill="#FF5252"/>
<path opacity="0.41" d="M201.734 117.836C201.734 118.879 199.956 119.737 197.811 119.737C195.666 119.737 193.889 118.879 193.889 117.836C193.889 116.794 195.666 115.936 197.811 115.936C200.018 115.936 201.734 116.794 201.734 117.836Z" fill="#4F0900"/>
<path d="M128.619 106.615C128.619 106.615 127.332 108.148 125.616 108.639C123.961 109.129 121.019 109.681 119.978 108.148C118.936 106.615 119.732 105.143 121.632 104.101C123.532 102.997 127.454 103.672 128.558 104.776C129.354 105.45 128.619 106.615 128.619 106.615Z" fill="#33B3C4"/>
<path d="M125.25 108.025C126.905 107.535 128.253 106.002 128.253 106.002C128.253 106.002 128.743 105.266 128.559 104.653L128.621 104.714C129.356 105.45 128.621 106.615 128.621 106.615C128.621 106.615 127.334 108.148 125.618 108.639C123.963 109.129 121.021 109.681 119.98 108.148C119.857 108.025 119.796 107.842 119.734 107.719C120.899 109.007 123.657 108.516 125.25 108.025Z" fill="#168CA8"/>
<path d="M156.874 125.562L161.409 123.171C162.328 122.68 163.493 122.68 164.412 123.171L185.371 134.392L189.416 135.619V137.029C189.416 137.274 189.294 137.581 188.987 137.703L183.839 140.463C182.92 140.953 181.756 140.953 180.836 140.463L156.261 127.341C155.955 127.157 155.832 126.911 155.832 126.666V125.256L156.874 125.562Z" fill="#168CA8"/>
<path d="M188.984 134.944L164.409 121.822C163.49 121.332 162.325 121.332 161.406 121.822L156.258 124.582C155.645 124.888 155.645 125.685 156.258 125.992L180.833 139.114C181.752 139.605 182.917 139.605 183.836 139.114L188.984 136.355C189.536 135.987 189.536 135.251 188.984 134.944Z" fill="#33B3C4"/>
<path d="M158.283 120.228L139.162 110.54C138.243 110.049 137.079 110.049 136.159 110.54L125.312 116.488C124.699 116.794 124.699 117.591 125.312 117.898L144.433 128.138C145.352 128.629 146.517 128.629 147.436 128.138L158.283 122.19C158.896 121.884 158.896 120.535 158.283 120.228Z" fill="#168CA8"/>
<path d="M158.283 120.228L139.162 109.988C138.242 109.497 137.078 109.497 136.159 109.988L125.311 115.936C124.698 116.242 124.698 117.039 125.311 117.346L144.432 127.586C145.351 128.077 146.516 128.077 147.435 127.586L158.283 121.638C158.895 121.332 158.895 120.534 158.283 120.228Z" fill="#33B3C4"/>
<path d="M153.626 118.634L139.347 110.785C138.489 110.356 137.447 110.356 136.589 110.785L126.722 116.181C126.171 116.488 126.171 117.162 126.722 117.469L141.002 125.317C141.86 125.747 142.902 125.747 143.76 125.317L153.626 119.921C154.178 119.615 154.178 118.94 153.626 118.634Z" fill="#168CA8"/>
<path d="M153.931 122.558L152.828 121.945C152.767 121.884 152.705 121.884 152.644 121.945L151.909 122.374C151.847 122.374 151.847 122.436 151.909 122.497L153.012 123.11C153.073 123.171 153.134 123.171 153.196 123.11L153.931 122.681C153.931 122.62 153.931 122.558 153.931 122.558Z" fill="#168CA8"/>
<path d="M155.158 121.822L154.055 121.209C153.994 121.148 153.932 121.148 153.871 121.209L153.136 121.638C153.074 121.638 153.074 121.7 153.136 121.761L154.239 122.374C154.3 122.435 154.361 122.435 154.423 122.374L155.158 121.945C155.219 121.884 155.219 121.822 155.158 121.822Z" fill="#168CA8"/>
<path d="M156.445 121.148L155.342 120.535C155.281 120.473 155.219 120.473 155.158 120.535L154.423 120.964C154.361 120.964 154.361 121.025 154.423 121.086L155.526 121.7C155.587 121.761 155.648 121.761 155.71 121.7L156.445 121.27C156.506 121.27 156.506 121.209 156.445 121.148Z" fill="#168CA8"/>
<path d="M146.149 126.666L145.046 126.053C144.985 125.992 144.924 125.992 144.862 126.053L144.127 126.482C144.066 126.482 144.066 126.544 144.127 126.605L145.23 127.218C145.291 127.28 145.353 127.28 145.414 127.218L146.149 126.789C146.211 126.789 146.211 126.728 146.149 126.666Z" fill="#168CA8"/>
<path d="M147.435 125.992L146.332 125.379C146.271 125.317 146.21 125.317 146.148 125.379L145.413 125.808C145.352 125.808 145.352 125.869 145.413 125.931L146.516 126.544C146.577 126.605 146.639 126.605 146.7 126.544L147.435 126.115C147.497 126.053 147.497 125.992 147.435 125.992Z" fill="#168CA8"/>
<path d="M148.722 125.318L147.619 124.704C147.558 124.643 147.496 124.643 147.435 124.704L146.7 125.134C146.638 125.134 146.638 125.195 146.7 125.256L147.803 125.869C147.864 125.931 147.925 125.931 147.987 125.869L148.722 125.44C148.783 125.379 148.783 125.318 148.722 125.318Z" fill="#168CA8"/>
<path d="M148.969 123.232C148.233 123.6 148.233 124.214 148.969 124.581C149.704 124.949 150.93 124.949 151.727 124.581C152.462 124.214 152.462 123.6 151.727 123.232C150.93 122.865 149.704 122.865 148.969 123.232Z" fill="#168CA8"/>
<path d="M150.318 124.459C149.675 124.459 149.153 124.212 149.153 123.907C149.153 123.602 149.675 123.355 150.318 123.355C150.961 123.355 151.482 123.602 151.482 123.907C151.482 124.212 150.961 124.459 150.318 124.459Z" fill="#33B3C4"/>
<path d="M127.825 120.105L133.708 116.487L138.182 114.035L141.859 115.568L141.798 117.898L140.572 119.063L139.898 120.105L137.753 120.841L134.872 120.534L133.708 120.657L129.479 122.803L127.825 120.105Z" fill="#FFD6A4"/>
<path d="M102.454 105.021C102.454 105.021 96.9382 106.431 96.9382 114.035C96.9382 115.445 104.721 117.959 107.05 121.148L115.14 130.161L134.628 123.416L135.241 120.902L131.687 117.468L116.427 120.289L102.454 105.021Z" fill="#002B6A"/>
<path d="M100.492 114.648L103.924 112.134L106.927 113.483L103.556 115.935L100.492 114.648Z" fill="#995710"/>
<path d="M116.855 81.4749L123.413 82.1494L121.023 99.0119L116.855 104.347C116.855 104.347 110.543 102.262 108.888 101.097C105.702 98.9505 106.131 93.2479 106.131 92.8187L105.763 81.4749H116.855Z" fill="#FFD6A4"/>
<path d="M102.697 106.37L106.252 94.8422L114.771 96.6817L111.829 108.945C111.89 110.356 119.428 119.921 119.49 124.275L103.31 119.431C103.372 117.53 102.697 106.37 102.697 106.37Z" fill="#FFD6A4"/>
<path d="M123.291 80.9841L122.616 81.8425L125.436 83.7434L122.678 87.7291L118.265 94.5354L118.081 93.3091C118.081 93.3091 116.304 92.4506 114.833 96.007L113.24 100.299C113.24 100.299 107.479 101.035 106.437 100.851L103.925 99.073L103.189 94.4741L100.186 85.8895L103.618 78.2861L115.262 77.9182L120.226 77.489C120.226 77.489 119.981 78.2861 119.062 78.9606C118.756 79.2059 122.249 79.2672 122.249 79.2672L121.329 80.4322L123.291 80.9841Z" fill="#D37A37"/>
<path d="M125.436 114.403C126.907 116.672 120.656 133.841 120.656 133.841L120.288 145.859C120.288 147.024 119.553 156.59 119.553 156.59L108.399 159.042L93.9357 152.297L92.9551 117.346L94.1808 107.964L100.432 103.365L109.257 106.186C109.257 106.063 123.475 111.398 125.436 114.403Z" fill="#002B6A"/>
<path d="M168.764 131.878L173.544 128.874L178.386 130.407L180.837 133.166L180.592 134.392L175.812 135.987H170.051L168.764 131.878Z" fill="#FFD6A4"/>
<path d="M170.724 133.289L170.54 138.072L145.352 138.624L141.124 137.581L121.513 125.379C117.897 121.638 115.139 118.756 116.978 114.403C119.368 112.563 122.248 112.809 125.435 114.403L146.149 129.365L168.15 130.652L170.724 133.289Z" fill="#174C99"/>
<path d="M88.5422 122.865L95.5287 119.492C96.3867 119.124 97.4286 119.063 98.4091 119.615L115.63 128.751C118.511 130.407 120.349 133.534 120.349 136.906V142.732C120.349 144.142 119.552 145.552 118.449 146.043L113.669 148.434L105.641 139.727L97.1834 134.822C94.303 133.166 92.4645 130.039 92.4645 126.666V125.379L88.5422 122.865Z" fill="#FF5252"/>
<path d="M110.238 148.557L91.8524 139.42C88.972 137.765 87.1335 134.638 87.1335 131.265V125.501C87.1335 123.048 89.7687 121.515 91.8524 122.742L110.238 131.878C113.118 133.534 114.957 136.661 114.957 140.034V145.859C114.957 148.25 112.322 149.783 110.238 148.557Z" fill="#B33939"/>
<path d="M94.7938 167.565V130.59C94.7938 128.873 95.4679 127.647 96.9388 126.85L101.78 129.18V172.716C101.78 172.716 99.0225 172.777 97.7968 172.042L97.0613 171.612C95.6518 170.693 94.7938 169.221 94.7938 167.565Z" fill="#33B3C4"/>
<path d="M134.995 58.5418L137.691 57.1314C138.549 56.6409 139.652 56.5183 140.694 57.0088L188.129 80.9229C189.661 81.7201 190.641 83.1304 190.641 84.6633V117.653C190.641 118.572 190.09 119.308 189.354 119.737L185.984 121.454L183.348 118.266L139.591 96.1298C138.059 95.3327 137.078 93.9224 137.078 92.3894V61.485L134.995 58.5418Z" fill="#9FEDEB"/>
<path d="M164.964 102.507V111.459C164.964 112.318 164.413 113.176 163.555 113.605L160.062 115.384C159.265 115.813 158.223 115.813 157.426 115.384L148.54 110.417V111.521C148.54 112.379 149.092 113.176 149.888 113.605L156.875 117.162C158.039 117.775 159.449 117.775 160.613 117.162L164.29 115.322C165.945 114.464 166.987 112.87 166.987 111.214V101.342L164.964 102.507Z" fill="#33B3C4"/>
<path d="M148.909 109.743L152.402 107.964C153.26 107.535 153.811 106.677 153.811 105.818V96.8657L164.904 102.507V111.459C164.904 112.379 164.352 113.176 163.494 113.606L160.001 115.384C159.205 115.813 158.163 115.813 157.366 115.384L148.909 111.092C148.296 110.785 148.296 110.049 148.909 109.743Z" fill="#9FEDEB"/>
<path d="M187.454 86.3189V116.917L133.952 89.8753V61.0558C133.952 58.2351 135.975 57.5606 138.181 58.9096L184.941 82.5785C186.473 83.3756 187.454 84.7859 187.454 86.3189Z" fill="#33B3C4"/>
<path d="M187.454 119.369C187.454 121.27 185.064 122.497 183.225 121.516L136.465 97.8467C134.933 97.0496 133.952 95.6393 133.952 94.1063V88.5877L187.454 115.629V119.369Z" fill="white"/>
<path d="M135.056 88.5878L184.88 113.422L185.064 84.1115L135.178 59.2776L135.056 88.5878Z" fill="#168CA8"/>
<path d="M145.29 92.6961L180.835 110.417L180.957 85.0927L145.412 67.3717L145.29 92.6961Z" fill="#DCEDF4"/>
<path d="M135.974 67.3716L144.37 71.5413L144.432 66.6358L135.974 62.4662V67.3716Z" fill="#DCEDF4"/>
<path opacity="0.3" d="M135.975 73.5649L144.371 77.7959V72.8904L135.975 68.7208V73.5649Z" fill="#CFF6FF"/>
<path opacity="0.3" d="M135.914 88.0358L144.31 92.2055L144.371 79.1447L135.914 74.9751V88.0358Z" fill="#CFF6FF"/>
<path opacity="0.3" d="M181.51 103.917L184.39 105.328L184.512 86.8709L181.632 85.3993L181.51 103.917Z" fill="#CFF6FF"/>
<path d="M149.702 81.8429L167.904 86.0125L166.249 79.2062L148.109 75.0365L149.702 81.8429Z" fill="#278787"/>
<path d="M157.24 81.2909C157.24 81.2909 175.503 95.3328 163.552 95.8847C147.251 96.6205 149.457 88.5878 149.457 88.5878L157.24 81.2909Z" fill="#1CB2C6"/>
<path d="M162.756 89.8754C162.756 94.3516 166.433 99.8089 170.968 102.078C175.565 104.346 179.242 102.568 179.303 98.092C179.303 93.6158 175.626 88.1585 171.091 85.8897C166.495 83.6209 162.756 85.3991 162.756 89.8754Z" fill="#3095A6"/>
<path d="M147.802 84.7247L178.996 91.9602L178.383 89.2622L147.128 82.088L147.802 84.7247Z" fill="#9FFFFF"/>
<path d="M171.949 88.4038C172.01 88.7104 177.158 106.677 177.158 106.677L168.701 102.262L171.949 88.4038Z" fill="#27C8D8"/>
<path d="M170.293 88.7718L167.107 101.158L163.859 98.0922L170.293 88.7718Z" fill="#47BBD6"/>
<path d="M156.198 74.3618L156.565 90.2432L150.56 72.1544L156.198 74.3618Z" fill="#27C8D8"/>
<path d="M149.396 86.3189L157.669 93.1866L148.354 90.4273L149.396 86.3189Z" fill="#277987"/>
<path d="M191.438 142.977V143.529L213.746 154.689V154.137L191.438 142.977Z" fill="#006A82"/>
<path d="M213.745 154.137V154.689L228.944 147.147V146.534L213.745 154.137Z" fill="#057893"/>
<path d="M191.434 142.977L213.742 154.137L228.94 146.534L206.633 135.374L191.434 142.977Z" fill="#168CA8"/>
<path d="M192.788 140.892V143.161L213.747 153.647V151.378L192.788 140.892Z" fill="#86E2DE"/>
<path d="M227.719 144.449V146.656L213.747 153.646V151.378L227.719 144.449Z" fill="#DEFFFC"/>
<path d="M191.439 139.666V140.218L213.747 151.378V150.826L191.439 139.666Z" fill="#006A82"/>
<path d="M213.746 150.826V151.378L228.945 143.836V143.223L213.746 150.826Z" fill="#057893"/>
<path d="M191.436 139.666L213.744 150.826L228.942 143.222L206.634 132.062L191.436 139.666Z" fill="#168CA8"/>
<path d="M195.547 138.317V138.807L215.036 148.557L214.974 148.066L195.547 138.317Z" fill="#30B7C1"/>
<path d="M214.975 148.066L215.036 148.557L228.212 141.996V141.444L214.975 148.066Z" fill="#53CAD3"/>
<path d="M195.546 138.317L214.973 148.066L228.211 141.444L208.784 131.756L195.546 138.317Z" fill="#9FEDEB"/>
<path d="M196.71 136.539L196.771 138.501L215.034 147.637L214.973 145.675L196.71 136.539Z" fill="#86E2DE"/>
<path d="M227.17 139.605V141.567L215.036 147.637L214.975 145.675L227.17 139.605Z" fill="#DEFFFC"/>
<path d="M195.547 135.435V135.987L215.035 145.675L214.974 145.184L195.547 135.435Z" fill="#30B7C1"/>
<path d="M214.974 145.184L215.035 145.675L228.212 139.114V138.623L214.974 145.184Z" fill="#53CAD3"/>
<path d="M195.545 135.435L214.973 145.184L228.21 138.623L208.783 128.874L195.545 135.435Z" fill="#9FEDEB"/>
<path d="M140.756 119.676L141.552 120.044L141.797 119.86L141.552 119.001L138.978 116.242L132.176 109.988L131.747 110.417L138.059 117.101L140.756 119.676Z" fill="#002B6A"/>
<path d="M139.041 119.615L139.899 120.105L140.573 119.063L139.776 118.205L139.225 118.327L139.041 119.615Z" fill="#FFD6A4"/>
<path d="M141.491 116.978L141.797 117.898L140.572 119.063L139.959 118.45L140.51 117.223L141.491 116.978Z" fill="#FFD6A4"/>
<path d="M56.3674 59.7685C43.0074 67.7398 32.4664 86.7485 32.7115 102.201C32.8341 109.865 35.6532 115.2 40.0044 117.714L48.3391 121.761C51.2808 121.455 53.9774 117.776 57.348 115.752C70.7081 107.781 81.2491 88.772 81.0039 73.3198C80.9426 68.4143 82.1683 63.9381 80.2072 61.1175L71.0145 56.7639C66.9084 55.5988 61.8218 56.4573 56.3674 59.7685Z" fill="#33B3C4"/>
<path d="M46.3175 120.8C36.7232 115.416 36.4622 97.6422 45.7345 81.1014C55.0069 64.5606 70.3014 55.5164 79.8957 60.9006C89.4901 66.2848 89.7511 84.0586 80.4787 100.599C71.2064 117.14 55.9119 126.184 46.3175 120.8Z" fill="#74C8D6"/>
<path d="M62.6194 113.117C73.2216 106.801 81.6177 91.7165 81.3725 79.3916C81.25 72.0947 78.0631 67.4958 73.3442 66.2082C79.1663 66.5761 83.2111 71.4815 83.3336 79.6982C83.5788 91.9618 75.1828 107.046 64.5805 113.423C60.2905 115.999 56.307 116.673 53.0589 115.815C55.9393 116.06 59.1874 115.201 62.6194 113.117Z" fill="#BFF7F3"/>
<path d="M61.8213 68.6595C66.1113 66.0841 70.0948 65.4096 73.3429 66.2681C78.1231 67.4944 81.2487 72.1546 81.3712 79.4515C81.6164 91.7151 73.2203 106.799 62.618 113.177C59.1861 115.261 55.8767 116.12 53.0576 115.936C47.2356 115.568 43.1908 110.662 43.0682 102.446C42.8231 90.0596 51.2803 74.9753 61.8213 68.6595Z" fill="white"/>
<path d="M63.0474 71.8478C62.2507 72.3383 61.6379 73.442 61.6379 74.4231C61.6379 75.3429 62.312 75.7108 63.1087 75.2203C63.9054 74.7297 64.5183 73.626 64.5183 72.7062C64.5183 71.7864 63.8442 71.4185 63.0474 71.8478Z" fill="#0F6B93"/>
<path d="M63.6615 106.493C62.8647 106.983 62.2519 108.087 62.2519 109.068C62.2519 109.988 62.926 110.356 63.7227 109.865C64.5194 109.375 65.1323 108.271 65.1323 107.351C65.1323 106.37 64.4582 106.002 63.6615 106.493Z" fill="#0F6B93"/>
<path d="M78.2452 80.2489C77.4485 80.7394 76.8356 81.8431 76.8356 82.8242C76.8356 83.744 77.5098 84.1119 78.3065 83.6214C79.1032 83.1308 79.7161 82.0271 79.7161 81.046C79.7161 80.1262 79.0419 79.7583 78.2452 80.2489Z" fill="#0F6B93"/>
<path d="M48.3988 98.0922C47.6021 98.5827 46.9893 99.6864 46.9893 100.668C46.9893 101.587 47.6634 101.955 48.4601 101.465C49.2568 100.974 49.8696 99.8704 49.8696 98.8893C49.8696 97.9695 49.1955 97.6016 48.3988 98.0922Z" fill="#0F6B93"/>
<path d="M60.9003 107.229C61.3906 107.045 61.8809 106.37 62.0035 105.757L65.129 90.3661C65.1903 90.0595 64.5774 90.3048 64.4549 90.1821C64.4549 90.1821 52.2592 95.0263 52.0141 95.3329C51.5851 95.8847 51.2786 97.295 52.0753 96.9885L63.1679 92.4509L60.2262 106.431C60.1037 107.045 60.4101 107.413 60.9003 107.229Z" fill="#0F6B93"/>
<path d="M63.2926 88.4652C62.1282 89.1397 61.2089 90.7953 61.2702 92.1443C61.2702 93.4933 62.2507 93.9839 63.4151 93.3094C64.5795 92.6349 65.4988 90.9793 65.4375 89.6303C65.3762 88.2813 64.457 87.7294 63.2926 88.4652Z" fill="#3DBFC9"/>
<path d="M63.2927 90.1823C62.9862 90.3663 62.7411 90.8568 62.7411 91.2248C62.7411 91.5927 62.9862 91.7153 63.3539 91.5313C63.6604 91.3474 63.9055 90.8568 63.9055 90.4889C63.9055 90.1823 63.6604 89.9984 63.2927 90.1823Z" fill="white"/>
<path opacity="0.59" d="M298.685 233.299L297.214 225.818V218.215L301.014 219.564V211.96L321.85 210.795V203.192L348.632 211.838L360.276 209.017V216.62L359.602 217.05L354.27 220.3C355.312 221.035 356.17 221.833 356.844 222.691L367.814 222.139V229.743L363.83 229.927L364.014 235.997L354.454 241.822L346.977 238.756C345.506 239.247 344.832 239.431 343.177 239.737V244.766L328.163 245.501L327.243 240.596C325.65 240.412 324.118 240.167 322.647 239.86L316.396 243.662L304.752 238.879L304.813 232.992L298.685 233.299ZM317.193 228.516C317.622 231.092 325.956 232.073 334.475 231.643C343.055 231.214 346.977 231.153 348.264 226.983C349.551 222.814 339.807 219.564 331.227 219.932C322.647 220.422 316.396 224.224 317.193 228.516Z" fill="#33B3C4"/>
<path d="M298.685 227.044L297.214 219.563V211.96L301.014 213.309V205.706L321.85 204.541V196.937L348.632 205.583L360.276 202.762V210.366L359.602 210.795L354.27 214.045C355.312 214.781 356.17 215.578 356.844 216.436L367.814 215.884V223.488L363.83 223.672L364.014 229.742L354.454 235.568L346.977 232.502C345.506 232.992 344.832 233.176 343.177 233.483V238.511L328.163 239.247L327.243 234.341C325.65 234.157 324.118 233.912 322.647 233.605L316.396 237.407L304.752 232.624L304.813 226.738L298.685 227.044ZM317.193 222.261C317.622 224.837 325.956 225.818 334.475 225.389C343.055 224.96 346.977 224.898 348.264 220.729C349.551 216.559 339.807 213.309 331.227 213.677C322.647 214.167 316.396 217.969 317.193 222.261Z" fill="#9FEDEB"/>
<path d="M315.046 226.921L316.394 229.803V237.407L322.646 233.605V226.002L315.046 226.921Z" fill="#CCFFFE"/>
<path d="M354.454 224.898V227.964V235.568L364.014 229.742V222.2L354.454 224.898Z" fill="#CCFFFE"/>
<path d="M299.787 219.379L298.684 219.441L298.562 218.889L297.336 212.512L297.213 211.96L298.316 211.899L307.019 211.469C307.387 210.55 307.877 209.691 308.612 208.833L301.871 206.073L301.013 205.705L301.687 205.276L309.838 200.309L310.512 199.88L311.37 200.248L318.111 203.069C319.582 202.578 321.114 202.149 322.708 201.842L321.911 197.55L321.789 196.998L322.892 196.937L335.7 196.324L336.803 196.262L336.926 196.814L337.723 201.107C339.316 201.291 340.909 201.475 342.442 201.842L347.896 198.531L348.57 198.102L349.428 198.47L359.356 202.578L360.214 202.946L359.54 203.375L354.208 206.625C355.25 207.361 356.108 208.158 356.782 209.017L365.24 208.587L366.343 208.526L366.465 209.078L367.691 215.455L367.813 216.007L366.71 216.068L358.376 216.497C358.008 217.417 357.456 218.337 356.66 219.257L363.156 221.955L364.014 222.323L363.34 222.752L355.189 227.719L354.515 228.148L353.657 227.78L347.038 225.021C345.567 225.511 343.974 225.94 342.319 226.247L343.116 230.478L343.238 231.03L342.135 231.091L329.327 231.704L328.223 231.766L328.101 231.214L327.243 226.86C325.65 226.676 324.117 226.431 322.647 226.124L317.07 229.497L316.396 229.926L315.538 229.558L305.609 225.45L304.751 225.082L305.426 224.653L311.002 221.28C310.022 220.544 309.225 219.809 308.551 219.012L299.787 219.379ZM317.192 214.658C317.989 218.95 325.65 222.077 334.229 221.71C342.809 221.28 349.122 217.479 348.264 213.186C347.467 208.894 339.806 205.767 331.226 206.135C322.647 206.564 316.334 210.366 317.192 214.658Z" fill="#FCFCFB"/>
<path opacity="0.59" d="M207.984 267.514L205.717 255.741L216.196 255.496L211.722 245.93V233.973L244.51 232.195V220.238L286.674 233.85L304.937 229.436V241.393L303.834 242.067L295.438 247.157C297.031 248.322 298.379 249.548 299.482 250.897L315.049 250.1L316.765 261.934L292.741 262.179L310.759 271.745L295.683 280.882L283.916 276.037C281.587 276.773 280.545 277.08 277.971 277.57V285.48L254.377 286.584L252.906 278.858C250.454 278.613 248.003 278.245 245.674 277.754L235.807 283.763L217.545 276.221L235.807 266.104L207.984 267.514ZM237.094 259.972C237.83 264.019 250.822 265.552 264.305 264.877C277.788 264.203 283.916 264.08 285.938 257.581C287.961 251.02 272.64 245.869 259.157 246.543C245.674 247.218 235.869 253.227 237.094 259.972Z" fill="#33B3C4"/>
<path d="M207.984 260.953L205.717 249.18V237.223L211.722 239.369V227.412L244.51 225.634V213.677L286.674 227.289L304.937 222.874V234.831L303.834 235.506L295.438 240.595C297.031 241.76 298.379 242.987 299.482 244.336L316.765 243.477V255.434L310.514 255.741L310.759 265.245L295.683 274.382L283.916 269.537C281.587 270.273 280.545 270.58 277.971 271.07V278.98L254.377 280.084L252.906 272.358C250.454 272.113 248.003 271.745 245.674 271.254L235.807 277.264L217.545 269.721L217.606 260.524L207.984 260.953ZM237.094 253.472C237.83 257.519 250.822 259.052 264.305 258.378C277.788 257.703 283.916 257.58 285.938 251.081C287.961 244.52 272.64 239.369 259.157 240.043C245.674 240.718 235.869 246.666 237.094 253.472Z" fill="#9FEDEB"/>
<path d="M233.662 260.708L235.807 265.307V277.264L245.674 271.255V259.359L233.662 260.708Z" fill="#CCFFFE"/>
<path d="M295.682 257.58V262.425V274.382L310.758 265.245V253.288L295.682 257.58Z" fill="#CCFFFE"/>
<path d="M209.699 248.935L207.983 248.996L207.8 248.138L205.838 238.081L205.655 237.223L207.371 237.162L221.037 236.487C221.589 235.077 222.447 233.666 223.55 232.379L212.947 228.025L211.599 227.473L212.702 226.799L225.572 219.011L226.675 218.337L228.024 218.889L238.687 223.304C240.955 222.568 243.406 221.893 245.919 221.403L244.632 214.658L244.448 213.799L246.164 213.738L266.265 212.757L268.043 212.573L268.226 213.431L269.513 220.176C272.026 220.422 274.539 220.79 276.929 221.28L285.509 216.068L286.612 215.394L287.96 215.945L303.588 222.384L304.936 222.936L303.833 223.61L295.437 228.7C297.03 229.865 298.378 231.091 299.482 232.44L312.78 231.827L314.496 231.766L314.68 232.624L316.641 242.68L316.825 243.539L315.109 243.6L301.994 244.213C301.443 245.685 300.523 247.156 299.298 248.567L309.471 252.798L310.819 253.35L309.716 254.024L296.846 261.811L295.743 262.486L294.395 261.934L283.977 257.642C281.648 258.378 279.135 259.052 276.561 259.543L277.848 266.226L278.032 267.085L276.316 267.146L256.215 268.127L254.499 268.189L254.315 267.33L253.028 260.524C250.576 260.279 248.125 259.911 245.796 259.42L237.032 264.755L235.929 265.429L234.581 264.877L219.015 258.439L217.666 257.887L218.77 257.213L227.533 251.939C226.001 250.836 224.775 249.609 223.734 248.383L209.699 248.935ZM237.094 241.515C238.381 248.26 250.392 253.227 263.875 252.552C277.358 251.878 287.225 245.869 285.938 239.124C284.651 232.379 272.639 227.412 259.156 228.086C245.674 228.761 235.807 234.77 237.094 241.515Z" fill="#FCFCFB"/>
<g opacity="0.79">
<path opacity="0.37" d="M259.523 146.349C259.523 146.349 268.348 164.929 272.7 166.094C279.196 160.882 284.344 166.584 285.263 174.126C285.263 174.126 293.965 172.532 292.924 183.447C297.765 181.914 301.565 187.984 298.01 192.583C298.01 192.583 308 196.324 304.445 203.007C304.445 203.007 310.88 202.823 309.532 209.568C308.184 216.313 302.055 214.719 302.055 214.719C302.055 214.719 311.003 218.521 305.181 222.261C299.359 226.002 296.785 222.813 296.785 222.813L259.523 218.766C259.523 218.766 245.673 217.846 241.935 209.2C238.135 200.493 244.999 198.531 244.999 198.531C244.999 198.531 243.283 190.376 250.453 188.414C250.453 188.414 250.392 187.126 252.843 180.136C250.208 176.886 252.782 174.985 254.437 171.183C256.643 165.91 249.902 150.519 249.902 150.519L259.523 146.349Z" fill="#33B3C4"/>
<path opacity="0.79" d="M263.753 203.314C263.753 203.314 251.312 195.097 248.37 205.153C248.37 205.153 230.843 207.974 242.609 222.445C242.609 222.445 232.375 222.2 233.294 232.256C234.213 242.312 243.1 238.878 243.1 238.878C243.1 238.878 242.732 242.006 249.841 242.006C256.95 242.006 258.666 232.501 258.666 232.501C258.666 232.501 260.443 242.864 268.349 240.105C276.255 237.407 273.068 237.1 273.068 237.1C273.068 237.1 278.154 243.661 285.754 235.751C285.754 235.751 286.122 238.327 292.985 234.709C292.985 234.709 292.618 246.482 301.504 244.765C310.452 243.048 309.103 236.303 309.103 236.303C309.103 236.303 320.625 238.817 322.096 229.19C323.567 219.563 317.377 222.139 317.377 222.139L318.112 220.728C318.112 220.728 324.486 224.653 328.714 219.134C332.943 213.615 325.834 207.606 325.834 207.606C325.834 207.606 315.661 189.456 303.894 203.682C303.894 203.682 298.807 192.706 291.331 202.026C291.331 202.026 289.86 198.531 285.754 201.965C281.586 205.399 285.202 207.545 285.202 207.545C285.202 207.545 284.16 202.885 277.235 206.748C270.31 210.611 273.558 209.446 273.558 209.446C273.558 209.446 273.558 197.427 263.753 203.314Z" fill="#E1FFFD"/>
</g>
<path d="M275.518 179.952C275.518 179.952 270.309 176.641 266.141 181.056C261.974 185.471 263.322 187.555 263.322 187.555C263.322 187.555 266.325 177.622 278.398 183.754C278.398 183.754 282.566 174.863 292.126 179.094C292.126 179.094 290.288 173.82 286.059 173.943C281.83 174.065 276.989 174.985 275.518 179.952Z" fill="white"/>
<path opacity="0.37" d="M259.28 146.043C259.28 146.043 264.98 156.835 266.267 158.797C267.554 160.698 272.456 165.787 272.456 165.787L263.018 160.391L261.854 163.212L264.305 168.853L262.222 171.428L257.258 159.226L255.051 171.858C254.5 164.99 252.906 157.632 249.965 151.193L259.28 146.043Z" fill="#33B3C4"/>
<path d="M272.395 192.767C271.23 192.215 268.473 193.258 268.473 193.258C268.473 193.258 266.573 191.97 271.782 189.211C276.991 186.452 279.749 190.253 279.749 190.253C283.303 188.72 286.552 190.253 286.552 190.253C286.552 190.253 286.552 190.253 290.903 188.046C295.254 185.838 297.705 189.272 297.705 189.272C297.705 189.272 296.97 189.088 295.131 190.253C293.293 191.418 295.867 192.767 295.867 192.767C299.36 191.848 304.631 196.63 302.792 195.711C301.015 194.852 293.783 196.385 293.783 196.385C293.783 196.385 292.986 192.645 289.493 192.277C285.939 191.909 285.019 196.385 285.019 196.385C285.019 196.385 284.897 194.362 277.481 193.81C270.005 193.258 268.595 200.739 268.595 200.739C266.511 194.546 273.498 193.319 272.395 192.767Z" fill="white"/>
<path d="M267.308 220.544C267.308 220.544 265.531 214.719 270.863 212.389C276.195 210.059 279.198 211.347 279.198 211.347C279.198 211.347 277.114 209.139 280.485 207.116C283.794 205.092 287.9 205.031 287.9 205.031C287.9 205.031 288.574 201.72 293.416 201.229C298.257 200.739 299.667 204.234 299.667 204.234C299.667 204.234 301.199 201.229 304.631 202.885C304.631 202.885 307.082 198.225 314.191 198.715C321.362 199.206 322.649 203.253 322.649 203.253C322.649 203.253 318.481 200.187 312.659 202.824L309.779 204.602C309.779 204.602 311.985 204.847 313.088 206.135C313.088 206.135 307.205 204.786 304.692 206.993C302.18 209.201 302.67 211.04 302.67 211.04C302.67 211.04 302.363 209.875 305.734 209.385C309.105 208.833 311.005 210.611 311.005 210.611C311.005 210.611 309.595 209.936 306.592 211.96C303.589 213.922 303.467 214.781 303.467 214.781C303.467 214.781 298.441 211.96 292.987 215.087C287.532 218.214 288.268 219.195 288.268 219.195C288.268 219.195 286.736 217.111 288.758 215.639C290.781 214.106 285.081 212.757 281.159 216.007C277.237 219.257 278.278 219.809 278.278 219.809C278.278 219.809 275.95 217.479 277.604 216.497C279.32 215.455 273.376 214.045 267.308 220.544Z" fill="white"/>
<path d="M226.37 130.468C226.064 128.383 226.37 122.067 226.37 122.067C233.479 117.407 259.525 109.62 268.718 110.54C268.718 110.54 274.295 114.525 276.93 118.634C279.259 122.374 282.201 135.435 282.201 135.435C283.304 138.746 282.323 142.486 278.952 146.165C271.66 154.137 254.868 159.226 242.672 156.467C235.869 154.934 232.621 150.703 231.518 146.656C231.457 146.717 226.983 134.638 226.37 130.468Z" fill="#B33939"/>
<path d="M233.907 142.793L233.968 137.704L231.149 134.086L226.736 141.015C224.775 144.142 224.224 147.944 225.327 151.5L230.475 167.933C230.658 168.485 230.904 168.976 231.271 169.466L233.6 173.329L233.784 155.854L235.561 148.128L233.907 142.793Z" fill="#B33939"/>
<path d="M279.932 128.383L276.991 124.214L277.236 119.615L284.774 122.803C288.206 124.214 290.78 127.096 291.883 130.591L297.031 147.024C297.215 147.576 297.276 148.128 297.215 148.68L297.031 152.42L287.409 138.93L281.526 133.595L279.932 128.383Z" fill="#FF5252"/>
<path d="M216.625 97.0496C211.477 80.6163 212.641 62.8954 219.812 47.1979L220.486 45.6649C222.937 40.3302 229.495 38.368 234.398 41.4953L235.93 42.4764C250.025 51.3062 261.608 64.7349 266.572 80.6163L275.887 117.898C275.887 117.898 277.42 125.379 273.988 129.119C266.695 137.029 251.067 141.873 238.933 139.114C232.314 137.642 228.147 133.779 226.86 129.855L216.625 97.0496Z" fill="white"/>
<path d="M232.375 95.8846C234.214 101.71 240.403 104.96 246.225 103.182C252.048 101.342 255.296 95.1488 253.457 89.3236C251.619 83.4984 245.429 80.2485 239.607 82.088C233.785 83.8049 230.537 90.0594 232.375 95.8846Z" fill="#86E2DE"/>
<path d="M235.624 94.8424C236.911 98.8894 241.201 101.158 245.246 99.8705C249.29 98.5828 251.558 94.2905 250.271 90.2435C248.984 86.1965 244.694 83.9277 240.649 85.2154C236.604 86.5031 234.337 90.7953 235.624 94.8424Z" fill="#2C2C54"/>
<path d="M276.99 124.214L284.528 127.402C287.96 128.812 290.534 131.694 291.637 135.189L297.031 152.42L281.342 138.133L276.99 124.214Z" fill="#D62222"/>
<path d="M233.969 138.623L229.557 145.552C227.596 148.679 227.044 152.481 228.147 156.038L233.54 173.268L238.321 152.604L233.969 138.623Z" fill="#FF5252"/>
<defs>
<linearGradient id="paint0_linear" x1="2" y1="175" x2="343.844" y2="251.581" gradientUnits="userSpaceOnUse">
<stop stop-color="#0B4275" stop-opacity="0.62"/>
<stop offset="0.635417" stop-color="#0B4275" stop-opacity="0.04"/>
</linearGradient>
</defs>
</svg>
