<svg width="374" height="350" viewBox="0 0 374 350" fill="none" xmlns="http://www.w3.org/2000/svg">
<path d="M25 2V1H26H372H373V2V348V349H372H26H25V348V2Z" fill="white" stroke="url(#paint0_linear)" stroke-width="2"/>
<g opacity="0.35">
<path opacity="0.15" d="M8.4697 218.801L214.359 321.806C225.541 327.398 243.626 327.398 254.75 321.806L355.042 271.644C366.224 266.052 366.224 257.036 355.042 251.443L149.152 148.439C137.971 142.846 119.886 142.846 108.762 148.439L8.4697 198.6C-2.7119 204.192 -2.7119 213.266 8.4697 218.801Z" fill="#00638E"/>
<path opacity="0.15" d="M11.7791 217.603L215.102 319.295C226.112 324.83 243.968 324.83 254.979 319.295L354.016 269.761C365.026 264.226 365.026 255.323 354.016 249.788L150.693 148.096C139.683 142.561 121.827 142.561 110.816 148.096L11.7791 197.63C0.768627 203.108 0.768627 212.067 11.7791 217.603Z" fill="#00638E"/>
<path opacity="0.35" d="M9.61105 217.661L215.501 320.665C226.682 326.258 244.767 326.258 255.891 320.665L356.184 270.504C367.365 264.912 367.365 255.895 356.184 250.303L150.294 147.298C139.112 141.706 121.028 141.706 109.903 147.298L9.61105 197.459C-1.57055 203.052 -1.57055 212.125 9.61105 217.661Z" fill="#9FEDEB"/>
<path opacity="0.35" d="M9.04099 215.492L214.931 318.496C226.112 324.089 244.197 324.089 255.321 318.496L355.614 268.335C366.795 262.742 366.795 253.726 355.614 248.134L149.667 145.072C138.485 139.48 120.401 139.48 109.276 145.072L9.04099 195.233C-2.14062 200.826 -2.14062 209.899 9.04099 215.492Z" fill="#86E2DE"/>
<g opacity="0.35">
<path opacity="0.35" d="M214.075 318.21L10.752 216.519C4.59075 213.437 1.22485 209.157 1.22485 204.478C1.22485 199.798 4.59075 195.518 10.752 192.437L109.789 142.96C121.37 137.197 140.139 137.197 151.72 142.96L355.043 244.652C361.204 247.734 364.57 252.014 364.57 256.693C364.57 261.373 361.204 265.652 355.043 268.734L256.063 318.267C250.301 321.178 242.713 322.604 235.069 322.604C227.481 322.547 219.894 321.121 214.075 318.21ZM111.786 147.012L12.8058 196.545C8.35598 198.771 5.78877 201.681 5.78877 204.478C5.78877 207.274 8.35598 210.184 12.8058 212.41L216.128 314.102C226.568 319.295 243.569 319.352 254.009 314.102L352.989 264.568C357.439 262.343 360.006 259.432 360.006 256.636C360.006 253.84 357.439 250.929 352.989 248.704L149.666 147.012C144.475 144.387 137.572 143.074 130.726 143.074C123.88 143.074 117.034 144.387 111.786 147.012Z" fill="#CAFFFE"/>
</g>
</g>
<g opacity="0.31">
<path opacity="0.31" d="M245.394 250.416C248.702 253.897 255.263 255.096 262.28 255.096C269.297 255.096 275.458 252.813 278.881 249.446C279.109 248.761 279.224 248.019 279.224 247.335C279.224 241.628 271.636 237.006 262.28 237.006C252.924 237.006 243.967 240.772 243.967 246.479C243.967 247.163 243.967 248.933 245.394 250.416Z" fill="#1D99B3"/>
<path opacity="0.31" d="M140.196 236.721C141.851 235.75 143.847 235.75 145.445 236.721L164.499 248.362V253.84C164.499 254.982 163.929 256.066 162.845 256.694L144.019 266.052C142.364 267.023 140.367 267.023 138.77 266.052L121.598 257.55C120.514 256.922 119.944 255.781 119.944 254.696V249.218L140.196 236.721Z" fill="#1D99B3"/>
<path opacity="0.31" d="M184.181 186.73C183.439 186.388 181.157 186.273 181.043 186.273C179.959 186.331 178.818 186.616 177.905 187.072L110.074 220.913C108.192 221.883 107.849 223.252 109.447 224.051L196.446 267.593C197.188 267.992 198.272 268.106 199.356 268.106C199.413 268.106 199.47 268.106 199.527 268.106C199.584 268.106 199.641 268.106 199.641 268.106C200.725 268.049 201.809 267.764 202.665 267.307L270.496 233.467C272.379 232.497 272.721 231.127 271.123 230.328L184.181 186.73Z" fill="#1D99B3"/>
</g>
<path opacity="0.68" d="M259.774 120.715C266.603 115.382 265.05 101.976 256.306 90.7721C247.561 79.5686 234.936 74.8102 228.106 80.1439C221.277 85.4777 222.83 98.8838 231.574 110.087C240.319 121.291 252.944 126.049 259.774 120.715Z" fill="#E6FFFE"/>
<path d="M239.687 105.639L251.382 108.778L255.661 113.515C255.661 113.515 253.835 119.392 253.835 119.678L253.493 122.93C250.641 123.045 247.389 122.303 243.966 120.591C239.117 118.194 234.724 114.256 231.244 109.691L232.043 107.865L239.687 105.639Z" fill="#D63D1E"/>
<path d="M240.316 106.609C240.031 105.639 239.403 108.435 239.403 108.55L239.803 110.147L240.715 110.604L250.585 108.435L248.189 105.925C248.189 104.897 248.189 103.813 248.189 103.642C248.018 103.699 246.763 102.9 246.763 102.9C246.763 102.9 240.772 106.609 240.316 106.609Z" fill="#EB8F69"/>
<path d="M251.385 108.664L250.187 110.09L244.196 112.202L241.401 113.514L239.747 110.09L237.179 111.289L238.035 107.123L239.747 106.096V110.09L248.304 107.922L249.502 106.495L251.385 108.664Z" fill="#F1D037"/>
<path d="M236.723 93.427C237.408 94.1689 239.404 94.3971 240.374 94.7395C241.8 95.139 245.509 96.5086 245.509 96.5086C245.509 97.3075 245.737 97.9352 245.908 98.7912C246.079 99.8184 246.65 100.503 246.307 102.672C246.764 102.386 247.22 102.044 247.619 101.759C247.734 100.903 247.905 100.047 248.019 99.5901C248.475 99.1907 249.787 99.4189 249.388 100.56C249.103 101.416 248.817 103.414 247.962 103.585C247.791 103.642 247.562 103.585 247.334 103.414C247.163 103.984 245.908 105.011 245.908 105.011C245.908 105.011 240.717 107.294 240.26 107.237C240.203 107.237 237.693 106.324 237.693 106.324L236.495 98.3917C236.438 98.2776 236.666 93.7694 236.723 93.427Z" fill="#EEA980"/>
<path d="M245.508 96.4513L245.336 99.3616L246.249 100.046L246.306 102.614C246.363 102.614 247.276 101.987 247.618 101.701C247.732 100.845 247.904 99.9894 248.018 99.5328C248.474 99.1334 249.786 99.3616 249.387 100.503C249.102 101.359 248.816 103.356 247.961 103.527C247.961 103.87 247.961 104.555 247.961 104.555L248.931 104.098L249.558 102.786C250.927 100.389 252.753 95.7094 252.753 95.7094L252.696 91.3153L245.508 96.4513Z" fill="#11487F"/>
<path d="M252.639 96.5085L253.153 89.9459C253.153 89.9459 249.045 85.4377 247.619 85.2094C246.25 84.9811 241.23 84.7529 239.689 86.0654C238.149 87.435 236.438 90.5166 236.438 90.5166L235.924 93.3699L247.163 96.5085H252.639Z" fill="#F1D037"/>
<path d="M239.232 92.4C237.292 92.0576 235.809 93.0277 235.809 93.0277L231.873 95.9381V96.2805L232.614 96.0522C237.806 95.6527 236.665 96.7941 239.917 98.1066C243.168 99.4191 244.937 98.1066 245.108 98.1066C245.279 98.1066 248.189 96.5087 248.189 96.5087V96.1663C248.189 96.2234 245.565 93.5413 239.232 92.4Z" fill="#EC5B2C"/>
<path d="M255.661 113.514L257.544 117.452L257.829 121.96C254.976 123.272 251.325 123.33 247.218 121.96L247.047 121.161L249.386 115.112L255.661 113.514Z" fill="#FF6835"/>
<path opacity="0.68" d="M225.167 138.708C233.064 132.54 231.261 117.028 221.14 104.061C211.018 91.0939 196.412 85.5818 188.514 91.7496C180.617 97.9173 182.42 113.429 192.541 126.397C202.663 139.364 217.27 144.876 225.167 138.708Z" fill="#E6FFFE"/>
<path fill-rule="evenodd" clip-rule="evenodd" d="M210.366 120.705C215.215 123.616 217.84 126.697 216.242 127.667C214.702 128.637 209.51 127.039 204.661 124.129C199.812 121.219 197.188 118.137 198.785 117.167C200.383 116.254 205.574 117.852 210.366 120.705Z" fill="#CB4B39"/>
<path fill-rule="evenodd" clip-rule="evenodd" d="M206.259 97.9357C203.235 97.7074 201.067 98.1069 200.04 99.5335C197.872 102.558 198.272 107.694 197.986 112.659C197.701 117.909 197.131 124.528 195.248 127.895L203.691 120.134L210.024 107.409L206.259 97.9357Z" fill="#542D21"/>
<path fill-rule="evenodd" clip-rule="evenodd" d="M215.501 125.384L212.592 132.404C211.679 134.686 196.561 122.988 198.158 119.678C199.185 117.566 201.524 118.023 204.434 119.164C207.172 120.249 209.682 121.96 212.249 123.444C213.904 124.357 215.273 125.099 215.501 125.384Z" fill="#CB4B39"/>
<path fill-rule="evenodd" clip-rule="evenodd" d="M196.562 126.354C197.018 124.414 197.76 121.732 198.787 120.762C199.928 119.678 200.27 120.02 200.783 120.02C202.666 120.134 201.81 115.455 201.639 114.599L209.055 112.259C208.827 113.629 207.515 117.395 208.599 120.819C209.227 123.615 210.71 123.387 213.905 124.585C218.297 126.24 215.331 135.314 213.334 140.678C211.28 140.222 209.17 139.48 206.945 138.395C203.008 136.455 199.3 133.602 196.048 130.235C196.048 129.094 196.219 127.781 196.562 126.354Z" fill="#EB8F69"/>
<path fill-rule="evenodd" clip-rule="evenodd" d="M196.447 124.985L198.386 119.392C199.299 118.708 200.326 119.392 200.954 119.906C199.128 121.96 206.031 125.327 209.796 122.873C210.595 123.33 211.85 123.672 213.676 124.357C218.297 126.183 214.988 136.113 213.276 140.735C211.223 140.279 209.112 139.537 206.887 138.452C202.323 136.17 198.101 132.746 194.564 128.694L196.447 124.985Z" fill="#CB4B39"/>
<path fill-rule="evenodd" clip-rule="evenodd" d="M201.812 100.448C199.53 104.157 199.073 109.008 199.073 109.008L199.758 114.942L200.271 117.168L202.896 118.423L209.741 115.855L213.393 103.757L201.812 100.448Z" fill="#FFB587"/>
<path fill-rule="evenodd" clip-rule="evenodd" d="M208.485 110.833C208.656 108.778 209.74 108.607 210.196 108.721C212.136 109.292 209.968 113.286 208.998 114.599C207.287 116.083 201.297 126.982 200.213 128.751C205.005 125.27 210.025 123.615 211.223 121.447C212.649 118.822 214.988 111.175 215.102 107.694C215.331 101.759 212.421 96.1666 204.891 97.2509C203.236 97.365 200.897 98.164 199.985 100.789C198.102 106.096 206.944 106.496 208.485 110.833Z" fill="#663F30"/>
<path fill-rule="evenodd" clip-rule="evenodd" d="M212.306 125.67C213.39 124.871 214.93 124.585 216.414 126.126C217.326 127.096 218.753 132.175 220.236 136.969C220.578 138.11 220.978 139.423 221.377 140.621C219.551 141.192 217.441 141.306 215.216 141.078C213.675 137.711 211.907 133.773 211.793 133.431C211.108 130.977 209.853 127.439 212.306 125.67Z" fill="#FFB587"/>
<path fill-rule="evenodd" clip-rule="evenodd" d="M212.306 125.385C213.39 124.586 215.045 124.357 216.528 125.898C217.555 126.982 220.692 136.684 221.833 140.507C219.78 141.192 217.441 141.42 214.873 141.078L210.367 130.692C210.138 128.751 210.766 126.469 212.306 125.385Z" fill="#B73627"/>
<path d="M152.69 193.007L159.878 191.523L162.844 193.521L163.187 200.882L152.69 230.842L148.297 227.418L150.636 215.149L152.69 193.007Z" fill="#E69C83"/>
<path d="M158.908 195.233H166.495L169.176 197.401L169.062 204.592L158.908 233.467L154.001 231.698L156.512 218.858L158.908 195.233Z" fill="#FFAD91"/>
<path d="M192.339 255.494C194.564 255.494 196.39 253.668 196.39 251.443V192.836C196.39 190.61 194.564 188.784 192.339 188.784C190.114 188.784 188.289 190.61 188.289 192.836V251.5C188.289 253.668 190.114 255.494 192.339 255.494Z" fill="#33B3C4"/>
<path d="M131.638 225.364C133.749 225.364 135.46 223.652 135.46 221.541V162.477C135.46 160.366 133.749 158.654 131.638 158.654C129.527 158.654 127.816 160.366 127.816 162.477V221.484C127.816 223.652 129.527 225.364 131.638 225.364Z" fill="#33B3C4"/>
<path d="M243.968 227.646C246.193 227.646 248.018 225.82 248.018 223.595V187.129C248.018 184.904 246.193 183.078 243.968 183.078C241.743 183.078 239.917 184.904 239.917 187.129V223.595C239.975 225.877 241.8 227.646 243.968 227.646Z" fill="#33B3C4"/>
<path d="M167.009 141.363C166.267 141.02 163.986 140.906 163.871 140.906C162.788 140.963 161.647 141.248 160.734 141.705L109.789 162.934C107.906 163.904 108.477 168.697 110.017 169.496L197.017 213.038C197.759 213.437 198.842 213.551 199.926 213.551C199.983 213.551 200.04 213.551 200.098 213.551C200.155 213.551 200.212 213.551 200.212 213.551C201.296 213.494 202.38 213.209 203.235 212.752L253.267 188.1C255.15 187.13 256.177 182.393 254.636 181.594L167.009 141.363Z" fill="#33B3C4"/>
<path d="M167.067 137.482C166.325 137.139 161.704 137.368 160.791 137.824L110.645 162.02C108.763 162.99 108.421 164.36 110.018 165.159L197.018 208.7C197.759 209.1 198.843 209.214 199.927 209.214C199.984 209.214 200.041 209.214 200.098 209.214C200.155 209.214 200.212 209.214 200.212 209.214C201.296 209.157 202.38 208.871 203.236 208.415L253.382 184.219C255.265 183.249 255.607 181.879 254.01 181.08L167.067 137.482Z" fill="#A4EAEA"/>
<path opacity="0.69" d="M183.497 179.083L207.115 191.866L227.253 181.766L203.692 168.983L183.497 179.083Z" fill="#DEFFFC"/>
<path opacity="0.69" d="M184.752 168.469L204.434 178.342L216.528 172.293L196.846 162.42L184.752 168.469Z" fill="#DEFFFC"/>
<path opacity="0.69" d="M132.722 156.713L156.341 178.17L176.479 168.127L152.861 146.67L132.722 156.713Z" fill="#DEFFFC"/>
<path d="M180.188 183.534C180.188 183.534 178.59 185.36 176.537 185.988C174.483 186.616 170.889 187.243 169.634 185.36C168.379 183.477 169.348 181.708 171.688 180.395C174.027 179.083 178.819 179.882 180.188 181.251C181.101 182.164 180.188 183.534 180.188 183.534Z" fill="#33B3C4"/>
<path d="M176.08 185.304C178.133 184.676 179.731 182.85 179.731 182.85C179.731 182.85 180.301 181.994 180.073 181.138C180.13 181.138 180.13 181.195 180.187 181.195C181.1 182.108 180.187 183.535 180.187 183.535C180.187 183.535 178.59 185.361 176.536 185.988C174.482 186.616 170.888 187.244 169.633 185.361C169.519 185.19 169.462 185.018 169.348 184.847C170.717 186.445 174.083 185.874 176.08 185.304Z" fill="#168CA8"/>
<path d="M143.221 162.078L147.329 159.91C148.185 159.453 149.211 159.453 150.067 159.91L169.122 170.067L172.773 171.209V172.464C172.773 172.692 172.659 172.921 172.373 173.092L167.695 175.603C166.84 176.059 165.813 176.059 164.957 175.603L142.651 163.676C142.366 163.562 142.251 163.276 142.251 163.048V161.793L143.221 162.078Z" fill="#168CA8"/>
<path d="M172.375 170.523L150.069 158.596C149.213 158.14 148.186 158.14 147.33 158.596L142.652 161.107C142.139 161.393 142.139 162.077 142.652 162.363L164.959 174.29C165.814 174.746 166.841 174.746 167.697 174.29L172.375 171.779C172.888 171.55 172.888 170.809 172.375 170.523Z" fill="#33B3C4"/>
<path d="M154.286 111.745L157.024 110.319C157.709 109.919 158.678 109.805 159.534 110.261L198.841 130.349C200.153 131.034 200.952 132.232 200.952 133.544V161.564C200.952 162.306 200.495 162.933 199.868 163.333L197.015 164.817L194.847 162.077L158.051 143.303C156.739 142.618 155.94 141.42 155.94 140.107V113.914L154.286 111.745Z" fill="#9FEDEB"/>
<path d="M179.729 150.323V159.054C179.729 159.91 179.216 160.709 178.36 161.165L174.937 162.934C174.138 163.334 173.168 163.334 172.37 162.934L163.698 158.084V159.111C163.698 159.967 164.212 160.709 165.01 161.165L171.799 164.646C172.94 165.217 174.309 165.217 175.45 164.646L178.987 162.82C180.642 161.964 181.612 160.424 181.612 158.769V149.125L179.729 150.323Z" fill="#33B3C4"/>
<path d="M164.213 157.341L167.579 155.629C168.434 155.173 168.948 154.374 168.948 153.518V144.786L179.73 150.322V159.053C179.73 159.909 179.217 160.708 178.361 161.164L174.938 162.934C174.139 163.333 173.17 163.333 172.371 162.934L164.156 158.768C163.642 158.425 163.642 157.683 164.213 157.341Z" fill="#BDFFFA"/>
<path d="M198.328 134.857V160.823L153.316 137.882V113.458C153.316 111.86 155.313 110.833 156.911 111.632L196.217 131.719C197.529 132.289 198.328 133.545 198.328 134.857Z" fill="#33B3C4"/>
<path d="M196.046 134.971V155.743L156.397 135.713V114.769L196.046 134.971Z" fill="#FCFEFE"/>
<path d="M198.328 162.819C198.328 164.417 196.331 165.444 194.734 164.645L155.427 144.615C154.115 143.93 153.316 142.732 153.316 141.419V136.74L198.328 159.681V162.819Z" fill="#E1FFFD"/>
<path d="M186.463 145.528C188.459 145.528 189.771 143.588 190.513 142.504C190.741 142.161 191.026 141.705 191.198 141.591C191.369 141.648 192.339 142.161 193.023 142.732C193.537 143.132 194.278 143.131 194.735 142.618C195.191 142.161 195.134 141.42 194.621 141.02C193.993 140.449 191.654 138.737 190 139.593C189.429 139.879 189.03 140.506 188.516 141.191C187.147 143.189 186.634 143.417 185.835 142.96C184.352 142.161 183.154 138.909 182.184 136.341C181.499 134.515 180.872 132.803 180.073 131.661C179.56 130.919 178.932 130.52 178.19 130.52H178.133C176.935 130.52 176.194 131.547 175.395 132.574C174.482 133.773 173.969 134.4 173.512 134.172C172.942 133.944 172.2 134.229 171.972 134.8C171.744 135.371 172.029 136.055 172.657 136.284C174.939 137.14 176.479 135.085 177.392 133.887C177.563 133.601 177.848 133.259 178.076 133.031C178.761 134.058 179.274 135.542 179.845 137.082C181.043 140.335 182.298 143.702 184.523 144.958C185.265 145.414 185.892 145.528 186.463 145.528Z" fill="#CCFFFE"/>
<path d="M173.113 141.134C173.227 141.134 173.284 141.077 173.284 140.963V127.838C173.284 127.724 173.17 127.667 173.113 127.667C172.999 127.667 172.942 127.724 172.942 127.838V140.963C172.942 141.077 172.999 141.134 173.113 141.134Z" fill="#CCFFFE"/>
<path d="M193.765 151.691C193.879 151.691 193.936 151.634 193.936 151.52V138.395C193.936 138.281 193.822 138.224 193.765 138.224C193.651 138.224 193.594 138.281 193.594 138.395V151.52C193.594 151.577 193.651 151.691 193.765 151.691Z" fill="#CCFFFE"/>
<path d="M188.002 148.724C188.116 148.724 188.173 148.667 188.173 148.553V135.427C188.173 135.313 188.059 135.256 188.002 135.256C187.888 135.256 187.831 135.313 187.831 135.427V148.553C187.774 148.667 187.888 148.724 188.002 148.724Z" fill="#CCFFFE"/>
<path d="M178.932 144.101C179.046 144.101 179.103 144.044 179.103 143.93V130.805C179.103 130.691 178.989 130.634 178.932 130.634C178.818 130.634 178.761 130.691 178.761 130.805V143.93C178.703 143.987 178.818 144.101 178.932 144.101Z" fill="#CCFFFE"/>
<path d="M190.228 138.11L191.541 138.738V137.767L190.228 137.083V138.11Z" fill="#CCFFFE"/>
<path d="M189.087 138.51L191.541 139.766V139.366L189.087 138.11V138.51Z" fill="#CCFFFE"/>
<path d="M182.813 135.941L184.125 136.626V135.656L182.813 134.971V135.941Z" fill="#CCFFFE"/>
<path d="M181.728 136.398L184.125 137.597V137.197L181.728 135.999V136.398Z" fill="#CCFFFE"/>
<path d="M175.567 129.093L176.88 129.778V128.808L175.567 128.123V129.093Z" fill="#CCFFFE"/>
<path d="M174.483 129.55L176.879 130.749V130.349L174.483 129.151V129.55Z" fill="#CCFFFE"/>
<path d="M160.734 122.131L169.691 126.696V124.87L160.734 120.305V122.131Z" fill="#CCFFFE"/>
<path d="M158.68 123.501L169.691 129.151V128.409L158.68 122.759V123.501Z" fill="#CCFFFE"/>
<path d="M158.68 125.669L169.69 131.319V130.577L158.68 124.927V125.669Z" fill="#CCFFFE"/>
<path d="M158.68 127.895L169.69 133.544V132.802L158.68 127.153V127.895Z" fill="#CCFFFE"/>
<path d="M158.68 130.063L169.69 135.656V134.971L158.68 129.321V130.063Z" fill="#CCFFFE"/>
<path d="M158.68 132.174L169.69 137.767V137.025L158.68 131.433V132.174Z" fill="#CCFFFE"/>
<path d="M158.68 134.343L169.69 139.936V139.194L158.68 133.601V134.343Z" fill="#CCFFFE"/>
<path d="M190.8 178.455V179.026L214.532 190.953V190.325L190.8 178.455Z" fill="#006A82"/>
<path d="M214.532 190.325V190.953L230.734 182.849V182.279L214.532 190.325Z" fill="#057893"/>
<path d="M190.801 178.455L214.533 190.325L230.735 182.279L206.946 170.352L190.801 178.455Z" fill="#168CA8"/>
<path d="M192.226 176.23V178.627L214.589 189.811L214.532 187.415L192.226 176.23Z" fill="#86E2DE"/>
<path d="M229.422 179.996V182.393L214.59 189.811L214.532 187.415L229.422 179.996Z" fill="#DEFFFC"/>
<path d="M190.799 174.918V175.545L214.531 187.415V186.844L190.799 174.918Z" fill="#006A82"/>
<path d="M214.531 186.844V187.415L230.733 179.369V178.741L214.531 186.844Z" fill="#057893"/>
<path d="M190.801 174.918L214.533 186.845L230.735 178.742L206.946 166.872L190.801 174.918Z" fill="#168CA8"/>
<path d="M195.191 173.548V174.062L215.9 184.448V183.877L195.191 173.548Z" fill="#30B7C1"/>
<path d="M215.9 183.877V184.448L229.991 177.372V176.858L215.9 183.877Z" fill="#53CAD3"/>
<path d="M195.193 173.549L215.902 183.878L229.993 176.859L209.284 166.53L195.193 173.549Z" fill="#9FEDEB"/>
<path d="M196.447 171.608V173.719L215.901 183.42V181.366L196.447 171.608Z" fill="#86E2DE"/>
<path d="M228.852 174.918V176.972L215.902 183.421V181.366L228.852 174.918Z" fill="#DEFFFC"/>
<path d="M195.191 170.467V170.98L215.9 181.366V180.853L195.191 170.467Z" fill="#30B7C1"/>
<path d="M215.9 180.853V181.366L229.991 174.347V173.834L215.9 180.853Z" fill="#53CAD3"/>
<path d="M195.192 170.466L215.901 180.852L229.992 173.833L209.283 163.447L195.192 170.466Z" fill="#ADF7F3"/>
<path d="M191.769 184.219L177.164 189.526L189.772 201.795L204.319 196.488L191.769 184.219Z" fill="white"/>
<path d="M189.256 191.98L189.655 192.38L196.501 189.869L196.102 189.469L189.256 191.98Z" fill="#86E2DE"/>
<path d="M186.803 189.583L187.202 189.983L194.105 187.472L193.649 187.072L186.803 189.583Z" fill="#86E2DE"/>
<path d="M188.457 191.181L188.856 191.581L195.702 189.07L195.302 188.671L188.457 191.181Z" fill="#86E2DE"/>
<path d="M187.66 190.382L188.06 190.782L194.905 188.271L194.506 187.871L187.66 190.382Z" fill="#86E2DE"/>
<path d="M184.064 195.347L184.692 196.032L197.813 191.181L197.186 190.553L184.064 195.347Z" fill="#86E2DE"/>
<path d="M185.148 196.431L185.775 197.059L198.897 192.208L198.269 191.58L185.148 196.431Z" fill="#86E2DE"/>
<path d="M186.175 197.459L186.859 198.144L199.98 193.293L199.353 192.665L186.175 197.459Z" fill="#86E2DE"/>
<path d="M187.259 198.543L187.944 199.171L201.065 194.32L200.38 193.692L187.259 198.543Z" fill="#86E2DE"/>
<path d="M188.342 199.627L189.027 200.254L202.148 195.404L201.463 194.776L188.342 199.627Z" fill="#86E2DE"/>
<path d="M188.572 193.122L183.323 195.006L179.958 191.753L185.206 189.813L188.572 193.122Z" fill="#86E2DE"/>
<path d="M187.887 187.529L188.286 187.928L192.907 186.216L192.508 185.817L187.887 187.529Z" fill="#FA7564"/>
<path opacity="0.37" d="M188.858 195.861L206.258 187.13L221.262 191.467L221.376 195.29L220.521 195.518L205.745 203.108L203.577 203.165L188.858 195.861Z" fill="#00638E"/>
<path d="M190.969 192.836L210.708 182.907L221.49 188.271V195.29L205.859 203.108L190.969 195.689V192.836Z" fill="white"/>
<path d="M221.493 192.379V193.064L205.862 200.939V200.255L221.493 192.379Z" fill="#CCFFFE"/>
<path d="M205.861 200.254V200.939L190.971 193.521V192.836L205.861 200.254Z" fill="#86E2DE"/>
<path d="M205.861 202.481V203.165L190.971 195.747V195.062L205.861 202.481Z" fill="#86E2DE"/>
<path d="M221.493 194.605V195.29L205.862 203.165V202.48L221.493 194.605Z" fill="#CCFFFE"/>
<path d="M221.493 193.863V194.548L205.862 202.423V201.738L221.493 193.863Z" fill="#CCFFFE"/>
<path d="M205.861 201.739V202.423L190.971 195.005V194.32L205.861 201.739Z" fill="#86E2DE"/>
<path d="M221.493 193.121V193.806L205.862 201.681V200.996L221.493 193.121Z" fill="#CCFFFE"/>
<path d="M205.861 200.997V201.682L190.971 194.263V193.578L205.861 200.997Z" fill="#86E2DE"/>
<g opacity="0.58">
<path opacity="0.58" d="M218.126 193.236L213.562 195.518L208.998 193.236L213.562 190.953L218.126 193.236Z" fill="#9FEDEB"/>
<path opacity="0.58" d="M205.175 198.314L206.201 198.828L209.853 197.059L208.826 196.545L205.175 198.314Z" fill="#9FEDEB"/>
<path opacity="0.58" d="M203.805 197.63L204.889 198.2L208.483 196.374L207.457 195.861L203.805 197.63Z" fill="#9FEDEB"/>
<path opacity="0.58" d="M202.493 197.002L203.52 197.516L207.114 195.689L206.087 195.176L202.493 197.002Z" fill="#9FEDEB"/>
<path opacity="0.58" d="M209.111 196.26L210.138 196.774L212.82 195.461L211.736 194.948L209.111 196.26Z" fill="#9FEDEB"/>
<path opacity="0.58" d="M206.03 194.719L210.594 197.002L213.276 195.689L208.597 193.464L206.03 194.719Z" fill="#9FEDEB"/>
<path opacity="0.58" d="M193.707 192.208L202.093 196.317L218.695 187.985L210.366 183.877L193.707 192.208Z" fill="#86E2DE"/>
</g>
<path d="M213.446 193.35L212.933 193.579L214.644 194.435L215.158 194.206L213.446 193.35Z" fill="white"/>
<path d="M213.39 194.092L212.876 194.377L213.903 194.834L214.417 194.606L213.39 194.092Z" fill="white"/>
<path d="M213.219 192.494L212.705 192.779L215.33 194.092L215.844 193.864L213.219 192.494Z" fill="white"/>
<path d="M212.99 191.695L212.477 191.98L216.072 193.75L216.585 193.464L212.99 191.695Z" fill="white"/>
<g opacity="0.65">
<path opacity="0.65" d="M219.893 191.809C218.752 192.38 216.926 192.38 215.842 191.809C214.701 191.238 214.701 190.325 215.842 189.755C216.983 189.184 218.809 189.184 219.893 189.755C221.034 190.325 221.034 191.295 219.893 191.809ZM216.356 190.04C215.5 190.439 215.5 191.124 216.356 191.581C217.211 191.98 218.524 191.98 219.379 191.581C220.235 191.181 220.235 190.497 219.379 190.04C218.581 189.641 217.211 189.641 216.356 190.04Z" fill="#9FEDEB"/>
</g>
<path d="M219.893 191.809C219.608 191.98 219.208 192.094 218.809 192.151L218.581 191.809C218.866 191.752 219.151 191.695 219.379 191.581C220.235 191.181 220.235 190.497 219.379 190.04C218.524 189.641 217.211 189.641 216.356 190.04L215.842 189.755C216.983 189.184 218.809 189.184 219.893 189.755C221.034 190.325 221.034 191.295 219.893 191.809Z" fill="#9FEDEB"/>
<path d="M216.984 191.068C216.869 191.011 216.869 190.954 216.984 190.896C217.098 190.839 217.212 190.839 217.326 190.896L217.212 190.954C217.155 190.954 217.098 190.954 217.098 190.954C217.041 190.954 217.041 191.011 217.098 191.011L217.212 191.068C217.212 191.011 217.212 191.011 217.269 190.954C217.326 190.896 217.44 190.896 217.554 190.954L217.668 191.011C217.782 191.068 217.782 191.125 217.668 191.182C217.554 191.239 217.44 191.239 217.326 191.182L216.984 191.068ZM217.326 191.125L217.44 191.182C217.497 191.182 217.554 191.182 217.554 191.182C217.611 191.182 217.611 191.125 217.554 191.125L217.44 191.068C217.383 191.068 217.326 191.068 217.326 191.068C217.269 191.068 217.269 191.125 217.326 191.125Z" fill="#9FEDEB"/>
<path d="M217.384 190.839C217.27 190.782 217.27 190.725 217.384 190.668C217.498 190.611 217.612 190.611 217.726 190.668L218.126 190.839C218.24 190.896 218.24 190.953 218.126 191.01C218.011 191.068 217.897 191.068 217.783 191.01L217.384 190.839ZM217.897 191.01C217.954 191.01 218.011 191.01 218.011 191.01C218.068 191.01 218.068 190.953 218.011 190.953L217.612 190.782C217.555 190.782 217.498 190.782 217.498 190.782C217.441 190.782 217.441 190.839 217.498 190.839L217.897 191.01Z" fill="#9FEDEB"/>
<path d="M217.726 190.611C217.669 190.554 217.669 190.554 217.726 190.497C217.783 190.44 217.897 190.44 217.954 190.497L218.182 190.611C218.239 190.668 218.239 190.668 218.182 190.725C218.125 190.782 218.011 190.782 217.954 190.725L217.726 190.611ZM218.068 190.725C218.125 190.725 218.125 190.725 218.125 190.725C218.125 190.725 218.125 190.725 218.125 190.668L217.897 190.554C217.84 190.554 217.84 190.554 217.84 190.554C217.84 190.554 217.84 190.554 217.84 190.611L218.068 190.725ZM218.011 190.383L218.068 190.325L218.525 190.839L218.467 190.896L218.011 190.383ZM218.353 190.554C218.296 190.497 218.296 190.497 218.353 190.44C218.41 190.383 218.525 190.383 218.582 190.44L218.81 190.554C218.867 190.611 218.867 190.611 218.81 190.668C218.753 190.725 218.639 190.725 218.582 190.668L218.353 190.554ZM218.696 190.668C218.753 190.668 218.753 190.668 218.753 190.668C218.753 190.668 218.753 190.668 218.753 190.611L218.525 190.497C218.467 190.497 218.467 190.497 218.467 190.497C218.467 190.497 218.467 190.497 218.467 190.554L218.696 190.668Z" fill="#9FEDEB"/>
<g opacity="0.49">
<path opacity="0.49" d="M217.154 188.385L203.177 195.404H203.12L217.097 188.385H217.154Z" fill="white"/>
<path opacity="0.49" d="M215.901 187.758L201.924 194.777L215.901 187.758Z" fill="white"/>
<path opacity="0.49" d="M214.702 187.187L200.725 194.149H200.668L214.645 187.13L214.702 187.187Z" fill="white"/>
<path opacity="0.49" d="M213.448 186.559L199.471 193.579V193.522L213.448 186.559Z" fill="white"/>
<path opacity="0.49" d="M212.248 185.932L198.271 192.951H198.214L212.191 185.932H212.248Z" fill="white"/>
<path opacity="0.49" d="M210.994 185.304L197.017 192.323H196.96L210.994 185.304Z" fill="white"/>
<path opacity="0.49" d="M205.004 194.491H204.947L197.359 190.668L205.004 194.491Z" fill="white"/>
<path opacity="0.49" d="M205.802 194.092H205.745L198.158 190.268L205.802 194.092Z" fill="white"/>
<path opacity="0.49" d="M206.602 193.692H206.545L198.9 189.869H198.957L206.602 193.692Z" fill="white"/>
<path opacity="0.49" d="M207.4 193.293H207.343L199.698 189.469H199.756L207.4 193.293Z" fill="white"/>
<path opacity="0.49" d="M208.198 192.893H208.141L200.497 189.07H200.554L208.198 192.893Z" fill="white"/>
<path opacity="0.49" d="M208.997 192.494H208.94L201.296 188.67H201.353L208.997 192.494Z" fill="white"/>
<path opacity="0.49" d="M209.74 192.095L202.095 188.272H202.152L209.74 192.095Z" fill="white"/>
<path opacity="0.49" d="M210.538 191.695L202.893 187.871H202.95L210.538 191.695Z" fill="white"/>
<path opacity="0.49" d="M211.336 191.296L203.692 187.472L211.336 191.296Z" fill="white"/>
<path opacity="0.49" d="M212.135 190.896L204.49 187.073L212.135 190.896Z" fill="white"/>
<path opacity="0.49" d="M212.934 190.497H212.877L205.289 186.673L212.934 190.497Z" fill="white"/>
<path opacity="0.49" d="M213.732 190.097H213.675L206.031 186.273H206.088L213.732 190.097Z" fill="white"/>
<path opacity="0.49" d="M214.531 189.698H214.474L206.83 185.874H206.887L214.531 189.698Z" fill="white"/>
<path opacity="0.49" d="M215.33 189.298H215.273L207.628 185.475H207.685L215.33 189.298Z" fill="white"/>
<path opacity="0.49" d="M216.128 188.899H216.071L208.427 185.132L208.484 185.075L216.128 188.899Z" fill="white"/>
<path opacity="0.49" d="M216.927 188.499H216.87L209.226 184.733L209.283 184.676L216.927 188.499Z" fill="white"/>
<path opacity="0.49" d="M204.205 194.833V194.89L196.56 191.067L204.205 194.833Z" fill="white"/>
<path opacity="0.49" d="M203.407 195.233V195.29L195.762 191.467V191.41L203.407 195.233Z" fill="white"/>
<path opacity="0.49" d="M209.796 184.733L195.819 191.695H195.762L209.739 184.676L209.796 184.733Z" fill="white"/>
<path opacity="0.49" d="M217.154 188.385L203.177 195.404L203.12 195.347L217.097 188.385H217.154Z" fill="white"/>
</g>
<path d="M201.523 194.319H201.409L201.466 193.52L201.124 192.55L201.523 191.923L202.436 191.58L203.292 191.295L202.835 190.211L203.463 189.754L204.661 189.526L205.289 189.069L206.087 188.67L207 188.327L207.856 187.186L209.054 186.958L209.738 186.558H209.795L210.765 186.273L210.936 185.531L210.993 185.588L210.822 186.273L209.853 186.558L209.111 187.015L207.913 187.243L207.114 188.384L206.144 188.727L205.403 189.126L204.775 189.583L203.52 189.811L202.95 190.268L203.406 191.295L202.493 191.637L201.58 191.98L201.238 192.55L201.58 193.52L201.523 194.319Z" fill="white"/>
<path d="M202.721 194.947H202.607L202.379 193.977L201.922 192.95L202.379 192.379L202.322 191.58L202.664 190.953L204.033 190.781L205.516 190.724L206.486 190.439L207.057 189.982L206.772 189.012L207.456 188.556L208.825 188.442L209.738 188.156L210.309 187.643L210.594 186.958L210.309 186.045L209.909 185.075H210.023L210.423 186.045L210.708 187.015L210.423 187.643L209.852 188.156L208.882 188.499L207.513 188.613L206.886 189.069L207.114 189.982L206.543 190.496L205.516 190.781L204.033 190.838L202.778 190.953L202.379 191.58L202.493 192.436L202.036 192.95L202.493 193.977L202.721 194.947Z" fill="white"/>
<path d="M203.065 195.061H203.008L203.236 194.377L203.521 193.749L204.206 193.349L205.176 193.007L205.689 192.436L206.203 191.923L207.001 191.523L206.944 190.724L207.914 190.382L208.199 189.754L208.827 189.298L209.511 188.784L209.568 188.042L209.625 187.3L211.109 187.186L212.25 186.958L212.706 186.444H212.763L212.307 187.015L211.166 187.243L209.74 187.3L209.683 188.042L209.568 188.841L208.941 189.298L208.313 189.754L207.971 190.439L207.058 190.724L207.115 191.523L206.317 191.923L205.803 192.493L205.29 193.007L204.32 193.349L203.635 193.749L203.35 194.434L203.065 195.061Z" fill="white"/>
<path d="M202.552 195.518C202.609 195.518 202.666 195.518 202.723 195.575C202.78 195.575 202.837 195.632 202.837 195.632C202.837 195.632 202.837 195.689 202.78 195.689C202.723 195.689 202.666 195.747 202.666 195.689C202.609 195.689 202.552 195.689 202.495 195.632C202.438 195.632 202.381 195.575 202.381 195.575C202.381 195.575 202.381 195.518 202.438 195.518C202.438 195.518 202.495 195.518 202.552 195.518ZM202.438 195.575C202.495 195.632 202.495 195.632 202.495 195.632C202.495 195.632 202.552 195.632 202.552 195.689H202.609C202.609 195.689 202.609 195.689 202.666 195.689C202.666 195.689 202.609 195.689 202.609 195.632C202.552 195.632 202.552 195.632 202.552 195.575C202.495 195.575 202.495 195.575 202.438 195.575C202.495 195.575 202.438 195.575 202.438 195.575Z" fill="white"/>
<path d="M201.241 194.891L201.583 195.062L201.526 195.119L201.298 195.005V195.062H201.184L201.241 194.948V194.891Z" fill="white"/>
<path d="M199.985 194.32H200.042H200.099C200.099 194.32 200.156 194.32 200.156 194.377C200.156 194.377 200.156 194.377 200.156 194.434V194.491L200.271 194.434L200.328 194.491L200.099 194.606L200.042 194.548C200.042 194.491 200.042 194.491 200.042 194.491V194.434C200.042 194.377 199.985 194.377 199.985 194.32C199.985 194.377 199.985 194.377 199.985 194.377H199.871V194.32C199.871 194.32 199.871 194.263 199.928 194.263C199.928 194.32 199.928 194.32 199.985 194.32Z" fill="white"/>
<path d="M198.73 193.692H198.788H198.845C198.845 193.692 198.902 193.692 198.902 193.749C198.902 193.749 198.902 193.749 198.902 193.807H198.959H199.016C199.016 193.807 199.073 193.807 199.073 193.864C199.073 193.864 199.073 193.864 199.073 193.921C199.073 193.921 199.016 193.921 199.016 193.978C198.959 193.978 198.902 194.035 198.845 194.035V193.978H198.902H198.959H198.902H198.845L198.788 193.921C198.788 193.749 198.788 193.749 198.73 193.692C198.73 193.749 198.73 193.749 198.73 193.749C198.73 193.749 198.673 193.749 198.673 193.807H198.559C198.559 193.749 198.559 193.749 198.616 193.749C198.731 193.692 198.73 193.692 198.73 193.692Z" fill="white"/>
<path d="M197.817 193.122L197.874 193.179L197.817 193.122L197.931 193.179L197.874 193.236L197.817 193.179L197.703 193.236H197.646L197.531 193.065H197.646L197.76 193.179H197.817L197.76 193.122L197.817 193.065V193.122Z" fill="white"/>
<path d="M196.39 192.437L196.276 192.494L196.333 192.551C196.333 192.551 196.333 192.551 196.39 192.494C196.39 192.494 196.39 192.494 196.39 192.437C196.447 192.494 196.504 192.494 196.504 192.494H196.562C196.562 192.494 196.619 192.494 196.619 192.551V192.608L196.562 192.665C196.504 192.665 196.447 192.722 196.39 192.722V192.665C196.447 192.665 196.447 192.665 196.504 192.665C196.447 192.665 196.447 192.665 196.39 192.665L196.333 192.722L196.162 192.608L196.39 192.437Z" fill="white"/>
<path d="M195.248 191.866H195.305H195.362C195.362 191.866 195.419 191.866 195.419 191.923V191.98C195.419 191.98 195.419 191.98 195.362 192.037C195.305 192.037 195.248 192.094 195.248 192.037C195.191 192.037 195.134 192.037 195.077 191.98C195.02 191.98 195.02 191.923 195.02 191.923V191.866C195.02 191.866 195.02 191.809 195.077 191.809C195.134 191.809 195.134 191.809 195.191 191.809V191.866H195.134C195.134 191.866 195.134 191.866 195.134 191.923C195.134 191.923 195.134 191.923 195.191 191.98C195.191 191.98 195.191 191.923 195.248 191.923C195.191 191.866 195.191 191.866 195.248 191.866ZM195.305 191.98C195.248 191.923 195.248 191.923 195.248 191.923C195.248 191.923 195.248 191.923 195.191 191.923H195.248C195.248 191.98 195.248 191.98 195.305 191.98Z" fill="white"/>
<path d="M221.491 188.271V192.38L217.382 190.325L221.491 188.271Z" fill="#CCFFFE"/>
<path opacity="0.68" d="M149.61 136.625C158.402 129.759 156.412 112.513 145.166 98.105C133.92 83.6969 117.677 77.5828 108.885 84.4488C100.094 91.3148 102.084 108.561 113.33 122.969C124.576 137.377 140.819 143.491 149.61 136.625Z" fill="#E6FFFE"/>
<path d="M115.094 125.098L115.551 122.816L118.46 116.824L123.423 115.283L126.333 115.169L118.403 128.636C117.319 127.495 116.178 126.297 115.094 125.098Z" fill="#2D98D7"/>
<path d="M118.517 116.767L125.191 114.712L134.89 116.653L141.279 122.188C141.279 122.188 137.97 133.259 136.316 138.908C134.091 138.395 131.695 137.596 129.242 136.397C124.564 134.058 120.171 130.577 116.406 126.525L116.577 123.158L118.517 116.767Z" fill="#1880C0"/>
<path d="M125.192 112.259C124.964 111.574 124.793 115.512 124.793 115.512C124.793 115.512 121.769 117.68 121.769 117.737L121.598 127.61L129.984 123.273L134.605 118.822L135.004 116.71L133.236 114.713C133.236 113.686 133.35 109.292 133.35 109.12C133.293 107.751 129.3 108.607 129.3 108.607C129.3 108.607 125.648 112.259 125.192 112.259Z" fill="#E58969"/>
<path d="M121.541 97.9921L126.104 97.022L132.779 98.1062L132.665 104.383C132.665 104.383 134.776 106.495 134.377 107.579C134.091 108.435 134.148 109.919 133.293 110.09C133.121 110.147 132.95 110.147 132.779 110.033C132.608 110.604 131.581 112.202 131.581 112.202C131.581 112.202 125.762 114.256 125.306 114.199C125.249 114.199 122.739 113.286 122.739 113.286L121.541 105.411V97.9921Z" fill="#E8A380"/>
<path d="M141.28 122.188L144.075 126.468L146.699 138.281C143.733 139.536 140.139 139.765 136.145 138.852L133.122 127.496L136.83 122.245L141.28 122.188Z" fill="#2D98D7"/>
<path d="M130.498 104.383L130.954 106.324L130.327 111.346L131.81 109.862C131.81 109.862 132.381 106.666 132.78 106.267C133.122 105.81 134.434 105.867 134.206 107.008C134.035 107.864 134.092 109.805 133.236 110.09L133.179 111.403L134.206 110.547L135.176 107.807C135.747 106.381 137.173 106.552 137.572 104.954C137.857 103.756 136.659 102.044 136.659 102.044L137.914 100.503L137.572 98.5627L135.804 97.4214L134.206 93.4268L130.783 91.087L127.703 91.03L124.565 89.5463L121.598 90.5735L119.83 89.318L118.29 90.8017L118.404 93.1985L117.833 93.7121L117.605 95.7094L119.773 96.7366L120.001 98.9622L122.283 99.647L124.907 98.9622L129.243 99.9323L130.954 103.242L130.498 104.383Z" fill="#083A75"/>
<path d="M129.869 110.547L127.986 111.346L126.389 109.12L122.395 108.378L121.54 111.346L120.456 112.772L120.798 115.112L120.285 117.223L122.624 118.422L124.62 117.851L126.389 118.65L128.899 117.623L129.07 115.683L130.268 114.655H130.896L131.923 113.457L131.58 112.202L131.809 109.862L129.869 110.547Z" fill="#083A75"/>
<path d="M148.582 172.007L152.348 168.754L158.224 168.925L157.881 169.952L154.401 170.808C154.401 170.808 156.398 171.208 156.797 171.55C157.197 171.893 157.197 172.235 155.885 172.691C154.629 173.148 152.405 174.289 151.435 174.232C150.408 174.175 148.582 172.007 148.582 172.007Z" fill="#FFBE92"/>
<path d="M148.354 225.82L146.129 229.13L149.666 233.125C149.666 233.125 154.401 238.717 156.398 238.717C158.395 238.717 155.999 233.239 155.999 233.239L153.546 229.13L148.354 225.82Z" fill="#002B6A"/>
<path d="M167.752 181.593L170.262 179.026L174.769 179.425L178.876 182.05L174.541 185.474L171.003 186.387L167.752 181.593Z" fill="#FFBE92"/>
<path d="M159.65 183.249L148.867 169.211L146.015 178.113L156.854 191.067L171.801 186.33L167.751 181.423L159.65 183.249Z" fill="#002B6A"/>
<path d="M157.426 245.279C157.825 245.108 158.396 245.108 158.966 245.45C160.336 246.249 161.42 248.361 161.42 250.187C161.42 251.214 161.077 252.298 160.507 252.583L156.685 254.524L153.49 247.676L157.426 245.279Z" fill="#002B6A"/>
<path d="M152.577 249.56C152.577 251.386 153.661 253.497 155.03 254.296C156.399 255.095 157.483 254.239 157.483 252.413C157.483 250.587 156.399 248.475 155.03 247.676C153.718 246.935 152.577 247.791 152.577 249.56Z" fill="#11487F"/>
<path d="M154.118 250.472C154.118 251.157 154.518 251.956 155.088 252.299C155.602 252.584 156.058 252.299 156.058 251.614C156.058 250.929 155.659 250.13 155.088 249.787C154.575 249.445 154.118 249.787 154.118 250.472Z" fill="#002B6A"/>
<path d="M130.612 245.279C130.213 245.108 129.642 245.108 129.072 245.45C127.703 246.249 126.619 248.361 126.619 250.187C126.619 251.214 126.847 252.241 127.418 252.526L131.411 254.524L134.606 247.676L130.612 245.279Z" fill="#002B6A"/>
<path d="M135.404 249.56C135.404 251.386 134.32 253.497 132.951 254.296C131.582 255.095 130.498 254.239 130.498 252.413C130.498 250.587 131.582 248.476 132.951 247.677C134.32 246.935 135.404 247.791 135.404 249.56Z" fill="#11487F"/>
<path d="M133.865 250.472C133.865 251.157 133.465 251.956 132.895 252.299C132.381 252.584 131.925 252.299 131.925 251.614C131.925 250.929 132.324 250.13 132.895 249.787C133.465 249.445 133.865 249.787 133.865 250.472Z" fill="#002B6A"/>
<path d="M153.089 231.868C152.69 231.697 152.233 231.697 151.72 232.04C150.522 232.724 149.552 234.608 149.552 236.205C149.552 237.119 149.837 238.032 150.351 238.26L153.774 239.972L156.626 233.923L153.089 231.868Z" fill="#002B6A"/>
<path d="M157.367 235.692C157.367 237.289 156.397 239.173 155.199 239.857C154.001 240.542 153.031 239.8 153.031 238.202C153.031 236.605 154.001 234.721 155.199 234.037C156.34 233.352 157.367 234.094 157.367 235.692Z" fill="#11487F"/>
<path d="M155.998 236.491C155.998 237.118 155.599 237.803 155.142 238.089C154.686 238.374 154.286 238.089 154.286 237.461C154.286 236.833 154.686 236.148 155.142 235.863C155.599 235.577 155.998 235.863 155.998 236.491Z" fill="#002B6A"/>
<path d="M134.263 231.868C134.663 231.697 135.119 231.697 135.633 232.039C136.831 232.724 137.8 234.607 137.8 236.205C137.8 237.118 137.515 238.031 137.002 238.317L133.579 240.029L130.726 233.98L134.263 231.868Z" fill="#002B6A"/>
<path d="M129.985 235.692C129.985 237.29 130.955 239.173 132.153 239.858C133.351 240.543 134.321 239.801 134.321 238.203C134.321 236.605 133.351 234.722 132.153 234.037C130.955 233.352 129.985 234.094 129.985 235.692Z" fill="#11487F"/>
<path d="M131.354 236.492C131.354 237.119 131.753 237.804 132.21 238.09C132.666 238.375 133.066 238.09 133.066 237.462C133.066 236.834 132.666 236.149 132.21 235.864C131.696 235.578 131.354 235.864 131.354 236.492Z" fill="#002B6A"/>
<path d="M157.311 231.926L156.798 233.924L148.754 239.117L147.556 236.663L157.311 231.926Z" fill="#168CA8"/>
<path d="M143.733 235.977L145.901 233.295L154.059 230.328L157.311 231.926L147.556 236.89L143.733 235.977Z" fill="#33B3C4"/>
<path d="M130.213 231.926L130.727 233.924L138.77 239.117L139.968 236.663L130.213 231.926Z" fill="#168CA8"/>
<path d="M143.791 235.978L141.566 233.296L133.636 230.271L130.213 231.926L139.969 236.891L143.791 235.978Z" fill="#33B3C4"/>
<path d="M161.646 246.991L160.791 248.989L157.025 250.872L143.79 242.198V238.032L161.646 246.991Z" fill="#168CA8"/>
<path d="M147.156 235.978L161.646 246.991L157.539 248.989L143.79 239.63V235.978H147.156Z" fill="#33B3C4"/>
<path d="M126.447 247.22L127.474 249.331L130.555 250.872L143.79 242.198V238.032L126.447 247.22Z" fill="#168CA8"/>
<path d="M140.424 235.978L126.447 247.22L129.984 248.989L143.79 239.63V235.978H140.424Z" fill="#33B3C4"/>
<path d="M143.791 239.402C145.902 239.402 147.613 237.804 147.613 235.806V219.086H140.026V235.806C139.969 237.804 141.68 239.402 143.791 239.402Z" fill="#33B3C4"/>
<path d="M128.216 207.787L141.337 200.197C142.877 199.284 144.817 199.284 146.414 200.197L158.167 206.988L164.214 208.072V213.322C164.214 214.407 163.7 215.434 162.616 216.062L144.532 225.078C142.992 225.991 141.052 225.991 139.454 225.078L123.024 216.918C121.94 216.29 121.427 215.263 121.427 214.178V208.928L128.216 207.787Z" fill="#B33939"/>
<path d="M162.617 205.333L146.415 194.947C144.875 194.034 142.935 194.034 141.338 194.947L122.968 206.189C120.858 207.387 120.858 210.469 122.968 211.667L139.456 219.828C140.996 220.741 142.935 220.741 144.533 219.828L162.617 210.868C164.728 209.613 164.728 206.589 162.617 205.333Z" fill="#FF5252"/>
<path d="M148.013 192.037L153.262 191.067L160.906 196.031L166.897 200.311L164.957 207.102L142.993 216.176L138.657 216.461C138.657 216.461 130.442 212.923 128.331 211.553C125.137 209.499 124.053 203.336 125.821 200.311C127.59 197.287 148.013 192.037 148.013 192.037Z" fill="#002B6A"/>
<path d="M130.156 161.963L125.364 168.24C125.364 168.24 125.364 183.192 125.364 187.871C125.364 192.493 126.676 201.282 126.676 201.282L143.905 206.417L154.345 200.311L148.925 189.241L150.751 179.539L148.925 169.153L130.156 161.963Z" fill="#002B6A"/>
<path d="M118.746 179.082L125.193 176.001C125.991 175.658 126.961 175.601 127.817 176.115L143.676 184.504C146.358 186.045 148.012 188.898 148.012 191.979V197.287C148.012 198.542 147.271 199.855 146.244 200.311L141.851 202.537L134.492 194.547L126.733 190.096C124.052 188.555 122.397 185.702 122.397 182.621V181.422L118.746 179.082Z" fill="#FF5252"/>
<path d="M138.657 202.651L121.77 194.32C119.089 192.779 117.434 189.926 117.434 186.844V181.537C117.434 179.311 119.83 177.885 121.77 179.026L138.657 187.415C141.338 188.956 142.992 191.809 142.992 194.89V200.198C143.049 202.423 140.596 203.793 138.657 202.651Z" fill="#B33939"/>
<path d="M124.509 216.119V187.243C124.509 185.702 125.137 184.561 126.506 183.762L130.956 185.874V220.741C130.956 220.741 128.446 220.741 127.305 220.113L126.62 219.714C125.308 219.029 124.509 217.602 124.509 216.119Z" fill="#168CA8"/>
<path d="M149.894 146.441L150.579 151.12L148.867 159.509L144.303 161.906C144.36 161.963 145.501 146.441 149.894 146.441Z" fill="#FFBE92"/>
<path d="M147.442 138.166L143.905 135.427L135.461 137.31L130.156 142.275V157.797L126.334 163.447L126.048 172.292L140.311 179.539L143.163 177.428L146.244 170.409L146.472 155.686L148.868 147.982L152.348 146.612L150.979 140.164L147.442 138.166Z" fill="#002B6A"/>
<path d="M154.459 229.529L152.234 232.782L155.771 236.834L159.707 240.828L162.503 242.426L163.986 240.03L159.65 232.782L154.459 229.529Z" fill="#002B6A"/>
<path d="M270.213 213.438L250.245 220.114V245.223C250.245 250.302 257.034 254.411 265.363 254.411C273.693 254.411 280.481 250.302 280.481 245.223V220.114L270.213 213.438Z" fill="white"/>
<path d="M265.363 229.361C273.713 229.361 280.481 225.247 280.481 220.173C280.481 215.099 273.713 210.985 265.363 210.985C257.014 210.985 250.245 215.099 250.245 220.173C250.245 225.247 257.014 229.361 265.363 229.361Z" fill="#86E2DE"/>
<path d="M252.527 224.965C255.208 227.59 259.944 229.359 265.363 229.359C270.783 229.359 275.575 227.59 278.199 224.965C278.37 224.451 278.484 223.88 278.484 223.31C278.484 218.859 272.608 215.321 265.363 215.321C258.118 215.321 252.242 218.916 252.242 223.31C252.242 223.88 252.356 224.451 252.527 224.965Z" fill="#33B3C4"/>
<path d="M279.454 220.171C279.454 224.565 273.008 228.331 265.42 228.331C257.776 228.331 251.386 224.622 251.386 220.171C251.386 215.777 257.833 212.01 265.42 212.01C270.783 212.41 280.139 215.777 279.454 220.171ZM265.363 210.926C257.034 210.926 250.245 215.035 250.245 220.114C250.245 225.193 257.034 229.301 265.363 229.301C273.692 229.301 280.481 225.193 280.481 220.114C280.481 215.092 273.749 210.926 265.363 210.926Z" fill="#C0F6FB"/>
<path d="M258.516 175.089L255.664 184.79L255.606 194.776C255.606 194.776 255.606 202.423 257.147 206.075C258.687 209.728 262.053 213.209 267.187 214.921C269.755 215.777 272.949 216.062 275.345 215.092C276.429 214.635 273.292 213.437 273.976 212.752C279.795 206.76 276.315 200.54 272.151 194.719C267.359 188.1 258.516 175.089 258.516 175.089Z" fill="#006859"/>
<path d="M249.56 205.162C248.932 196.945 249.617 186.73 249.617 186.73L252.241 172.749L255.207 184.847L258.687 199.227L262.453 178.627L266.104 159.852L268.329 178.113C269.298 181.366 269.527 184.79 269.698 188.157C269.983 193.064 270.554 202.937 270.554 202.937L273.007 191.181L278.198 155.515L280.537 180.852L282.933 183.82C282.933 183.82 281.564 206.075 279.453 213.494C277 221.94 269.127 227.703 260.057 225.706C251.784 223.88 250.073 212.01 249.56 205.162Z" fill="#009681"/>
<path d="M276.03 215.149L276.543 199.969L275.459 191.01L272.892 170.523L262.795 211.782L262.68 219.486C262.68 219.486 268.271 225.478 271.01 224.507C273.177 223.823 276.03 215.149 276.03 215.149Z" fill="#00B09D"/>
<path d="M260.741 215.092L261.997 207.216L262.567 202.423L262.396 191.181L267.816 213.266L267.873 217.374C267.873 217.374 264.849 220.57 263.423 220.056C262.282 219.714 260.741 215.092 260.741 215.092Z" fill="#00B09D"/>
<path opacity="0.68" d="M188.006 104.126C195.903 97.9585 194.1 82.4465 183.979 69.4793C173.857 56.512 159.25 50.9999 151.353 57.1677C143.456 63.3354 145.259 78.8474 155.38 91.8146C165.502 104.782 180.109 110.294 188.006 104.126Z" fill="#E6FFFE"/>
<path d="M157.309 86.0082L163.983 83.4402L175.735 87.8913L185.091 95.4241L187.031 100.959C187.031 100.959 187.145 102.386 187.316 104.669C183.038 107.465 176.762 107.465 169.688 103.984C163.983 101.131 158.735 96.4513 154.684 90.9729L157.309 86.0082Z" fill="#002B6A"/>
<path d="M158.564 92.3425L161.017 91.2582L160.39 89.2038C160.39 89.2038 162.672 86.8641 163.242 86.5217C163.812 86.9212 164.611 87.3207 165.182 87.4919C164.326 87.663 163.584 88.462 162.957 89.4321C162.843 89.6033 162.786 89.7174 162.672 89.8886C162.215 90.6305 161.93 91.4294 161.759 92.1142C161.245 93.9403 160.96 95.7094 160.732 97.5925C159.876 96.7936 159.02 95.9376 158.222 95.0816L158.564 92.3425Z" fill="#11487F"/>
<path d="M167.463 102.671C166.608 102.158 165.752 101.587 164.953 101.016C165.467 100.103 166.037 99.1902 166.608 98.3913C167.806 96.7935 169.175 95.7663 170.601 94.5679C170.943 94.2826 171.286 93.9972 171.628 93.7119C172.141 93.2554 172.769 92.5706 173.282 91.8287C173.91 90.8015 174.309 89.6602 173.796 88.576C173.739 88.6901 173.682 88.7472 173.682 88.8613C173.739 88.1194 173.796 87.3205 173.853 86.5786C173.853 86.1792 173.91 85.7797 173.91 85.3802C174.708 86.2362 176.306 88.6901 176.42 88.8042C176.876 90.345 175.279 94.682 175.279 94.682L174.252 97.4212L172.141 97.1929L172.369 99.875L167.463 102.671Z" fill="#11487F"/>
<path d="M161.702 92.1721C161.702 92.1721 162.215 90.6884 162.615 89.9465C163.413 89.49 172.598 92.4004 173.283 91.8297C172.769 92.5716 171.628 93.7129 171.628 93.7129L170.602 94.5689L166.608 98.3923C166.608 98.3923 165.866 99.5907 165.068 101.074C163.584 100.047 162.158 98.8488 160.789 97.5934C161.074 95.1395 161.702 92.1721 161.702 92.1721Z" fill="#87D8E0"/>
<path d="M162.844 93.4273L162.958 93.2561L163.243 91.0305C163.243 91.0305 163.814 90.574 164.099 90.4028C164.498 90.1174 165.525 90.0033 165.525 90.0033C165.754 90.574 165.982 91.2017 166.21 91.8865C166.21 91.9435 166.267 92.0006 166.267 92.1147C165.696 92.7995 164.898 93.5414 164.099 93.9409C163.7 95.5958 163.472 98.8485 163.415 99.9328C162.616 99.3051 161.874 98.6773 161.133 97.9925L162.844 93.4273Z" fill="#002B6A"/>
<path d="M173.627 88.8613C171.972 91.7146 165.697 91.0298 165.469 88.9184L165.697 86.6357C165.469 87.1493 163.529 88.576 162.901 89.489C162.787 89.6602 162.73 89.7744 162.616 89.9456C162.616 90.345 162.844 91.2581 162.844 91.2581L163.187 91.0298L164.042 90.4021L165.526 90.1738C165.754 90.7445 166.553 93.6549 166.553 93.6549L170.774 93.1413C170.774 93.1413 172.543 92.4565 173.227 91.8858C173.855 90.8586 174.254 89.7173 173.741 88.6331C173.741 88.6331 173.684 88.7472 173.627 88.8613Z" fill="#CFFFFF"/>
<path d="M165.468 87.1493C165.411 87.1493 165.525 89.8314 165.525 89.9455C165.582 90.8585 171.914 92.5135 173.797 88.9754C173.854 88.2335 173.968 84.4101 173.968 84.0106C173.797 84.0106 173.74 82.0704 173.454 81.8992C172.884 82.3557 165.924 87.2063 165.468 87.1493Z" fill="#EB8F69"/>
<path d="M162.158 72.1984C162.843 73.0544 164.954 73.3968 166.038 73.7962C167.521 74.3098 171.457 76.0218 171.457 76.0218C171.457 76.8778 171.628 77.6197 171.799 78.5898C171.971 79.7311 172.541 80.5871 172.085 82.9268C172.598 82.5844 173.055 82.2991 173.511 81.9567C173.682 81.0436 173.853 80.0735 174.024 79.5599C174.481 79.1034 175.907 79.4458 175.451 80.7012C175.108 81.6713 174.709 83.8399 173.796 84.0111C173.568 84.0111 173.397 84.0111 173.112 83.8399C172.883 84.4676 171.514 85.5518 171.514 85.5518C171.514 85.5518 165.866 87.8345 165.353 87.7774C165.296 87.7774 162.615 86.6361 162.615 86.6361L161.645 77.7338C161.645 77.6767 162.044 72.5978 162.158 72.1984Z" fill="#EEA980"/>
<path d="M171.4 76.0216C171.4 76.8776 171.571 77.6194 171.742 78.5895C171.914 79.7309 172.484 80.5868 172.028 82.9266C172.541 82.5842 172.998 82.2988 173.454 81.9564C173.625 81.0434 173.796 80.0733 173.967 79.5597C174.424 79.1031 175.85 79.4455 175.394 80.701C175.051 81.6711 174.652 83.8396 173.739 84.0108C173.739 84.4103 173.682 85.1521 173.682 85.1521L174.709 84.6956L175.394 83.2119C176.934 80.5868 179.102 75.4509 179.102 75.4509L179.216 70.5432C179.216 70.5432 174.31 75.1085 171.4 76.0216Z" fill="#BF802E"/>
<path d="M170.317 76.2499C170.317 76.2499 171.286 76.0787 171.458 76.0217C174.31 75.1086 176.991 72.5977 179.273 70.5433C178.703 69.345 176.706 67.3476 176.706 67.3476C175.793 66.5487 170.317 65.1221 168.776 65.4074C168.092 65.5786 165.753 66.2063 165.296 66.3205C165.524 66.2634 161.246 66.8911 161.189 66.8911C161.189 66.8911 160.447 69.6873 161.189 71.114C161.417 71.5135 162.501 73.0542 162.501 73.0542C162.501 73.0542 168.605 76.307 170.317 76.2499Z" fill="#FFBF66"/>
<path opacity="0.68" d="M272.653 181.116C280.177 175.239 278.465 160.466 268.829 148.12C259.192 135.774 245.28 130.529 237.755 136.406C230.231 142.283 231.943 157.056 241.579 169.402C251.216 181.748 265.128 186.993 272.653 181.116Z" fill="#E6FFFE"/>
<path d="M238.321 164.588L241.459 160.822L245.966 159.338L246.878 161.05L242.885 171.037C241.174 169.039 239.633 166.871 238.321 164.588Z" fill="#4D5080"/>
<path d="M258.23 156.143C258.116 157.398 257.831 160.651 257.831 160.651L260.17 163.847L259.428 169.04L256.119 176.629L247.277 174.632L245.508 172.35L241.686 164.817L246.991 158.368C246.934 158.368 258.572 155.515 258.23 156.143Z" fill="#EB8F69"/>
<path d="M263.594 183.477C261.027 183.249 258.174 182.393 255.208 180.966C248.99 177.885 243.399 172.521 239.405 166.415L240.432 163.162L247.221 159.11L247.164 161.678L245.11 166.928L246.365 170.295L253.325 169.781L258.403 165.901L259.658 162.534L267.302 169.724L263.594 183.477Z" fill="#3E3F78"/>
<path d="M247.676 144.558C246.478 145.3 244.482 145.7 244.482 145.7L244.367 150.265L245.851 161.564L248.304 162.762L254.979 160.309L255.834 157.798C255.834 157.798 257.203 158.54 258.858 155.458C259.257 154.374 259.714 153.004 259.714 153.004L259.371 147.069L250.7 143.189C250.7 143.132 248.475 144.273 247.676 144.558Z" fill="#EEA980"/>
<path d="M267.36 169.667L268.957 171.665L270.497 177.599L271.011 182.165C268.329 183.534 265.021 183.877 261.255 183.078L260.457 178.455L260 173.034L262.91 169.097L267.36 169.667Z" fill="#4D5080"/>
<path d="M254.238 149.808L253.668 152.376L254.352 155.344L255.779 155.058C255.779 155.058 256.121 153.86 256.577 153.46C256.977 153.004 258.346 153.061 258.118 154.259C257.946 155.172 257.889 157.227 257.034 157.512C257.091 157.855 257.148 158.539 257.148 158.539L258.06 157.969L258.517 156.542C259.601 153.974 260.856 148.952 260.856 148.952L260.913 145.3L259.544 143.645L258.802 141.134L256.52 140.506L249.788 140.963L245.966 142.104L244.483 142.047L243.171 143.873L244.369 148.667L245.51 148.325L246.708 148.496L252.127 147.982L254.238 149.808Z" fill="#152A3F"/>
<path opacity="0.34" d="M357.723 283.8L322.467 302.004L285.841 283.686L321.383 265.596L357.723 283.8Z" fill="#33B3C4"/>
<path d="M353.902 278.72L319.901 295.726L285.843 278.72L319.901 261.715L353.902 278.72Z" fill="#FF5252"/>
<path d="M285.842 278.721V281.802L319.9 298.808V295.726L285.842 278.721Z" fill="#E52C2C"/>
<path d="M353.901 278.721V281.802L319.9 298.808V295.726L353.901 278.721Z" fill="#A61D1D"/>
<path d="M328.742 271.815C328.742 271.815 328.8 271.815 328.8 271.758C328.8 271.758 328.857 271.758 328.857 271.701C328.914 271.644 329.028 271.644 329.085 271.587C329.142 271.53 329.256 271.53 329.37 271.53C329.541 271.473 329.712 271.416 329.883 271.416H329.941C330.055 271.416 330.112 271.359 330.226 271.359H330.283C330.625 271.302 330.967 271.302 331.31 271.302C331.367 271.302 331.367 271.302 331.424 271.302C331.481 271.302 331.538 271.302 331.595 271.302C331.652 271.302 331.652 271.302 331.709 271.302C331.766 271.302 331.88 271.302 331.937 271.302C331.937 271.302 331.937 271.302 331.994 271.302C332.222 271.302 332.394 271.359 332.565 271.416C332.736 271.473 332.907 271.473 333.078 271.53C333.135 271.53 333.135 271.53 333.192 271.587C333.363 271.644 333.535 271.701 333.649 271.758C333.706 271.758 333.763 271.815 333.82 271.815C333.82 271.815 333.877 271.815 333.877 271.872C333.877 271.872 333.934 271.872 333.934 271.929C333.991 271.929 334.048 271.987 334.048 271.987C334.162 272.044 334.276 272.158 334.39 272.215L334.447 272.272C334.561 272.386 334.619 272.443 334.676 272.557C334.733 272.671 334.79 272.728 334.847 272.843C334.847 272.9 334.847 272.9 334.904 272.957V273.014V273.071V273.128C334.904 273.299 334.847 273.47 334.79 273.641C334.79 273.641 334.79 273.641 334.79 273.699C334.79 273.756 334.733 273.813 334.676 273.813C334.619 273.927 334.504 273.984 334.447 274.098C334.39 274.155 334.333 274.212 334.276 274.212C334.219 274.269 334.162 274.269 334.162 274.269H334.105H334.048L333.991 274.326C333.934 274.326 333.934 274.383 333.877 274.383C333.82 274.383 333.763 274.44 333.763 274.44C333.706 274.44 333.649 274.497 333.592 274.497C333.535 274.555 333.421 274.555 333.363 274.612C333.306 274.669 333.192 274.669 333.078 274.669C332.907 274.726 332.736 274.783 332.565 274.783H332.508C332.394 274.783 332.337 274.84 332.222 274.84H332.165C331.88 274.897 331.538 274.897 331.253 274.897C331.196 274.897 331.139 274.897 331.082 274.897C331.024 274.897 330.967 274.897 330.91 274.897C330.853 274.897 330.853 274.897 330.796 274.897C330.739 274.897 330.625 274.897 330.568 274.897C330.568 274.897 330.568 274.897 330.511 274.897C330.397 274.897 330.283 274.897 330.169 274.84C330.112 274.84 329.998 274.84 329.941 274.783C329.769 274.726 329.598 274.726 329.427 274.669C329.37 274.669 329.37 274.669 329.313 274.612C329.142 274.555 328.971 274.497 328.857 274.44C328.8 274.44 328.743 274.383 328.685 274.383C328.685 274.383 328.628 274.383 328.628 274.326C328.628 274.326 328.571 274.326 328.571 274.269C328.514 274.269 328.457 274.212 328.457 274.212C328.343 274.155 328.229 274.041 328.115 273.984L328.058 273.927C327.944 273.813 327.887 273.756 327.83 273.641C327.773 273.584 327.773 273.527 327.716 273.527C327.659 273.47 327.659 273.413 327.659 273.356C327.659 273.299 327.659 273.299 327.602 273.242V273.185V273.128V273.071C327.602 272.9 327.659 272.728 327.716 272.557C327.716 272.557 327.716 272.557 327.716 272.5C327.716 272.443 327.773 272.386 327.83 272.386C327.83 272.386 327.83 272.386 327.887 272.329C327.944 272.215 328.058 272.158 328.115 272.044C328.172 271.987 328.229 271.929 328.286 271.929C328.343 271.872 328.4 271.872 328.457 271.815C328.514 271.815 328.514 271.758 328.571 271.758C328.628 271.758 328.685 271.701 328.685 271.701C328.685 271.872 328.742 271.872 328.742 271.815ZM334.276 274.497C334.219 274.497 334.219 274.497 334.219 274.497C334.219 274.497 334.219 274.497 334.276 274.497ZM334.276 274.497H334.219C334.219 274.497 334.219 274.497 334.276 274.497ZM321.611 273.641L318.816 275.011C318.759 275.011 318.759 275.068 318.816 275.068L327.544 279.462C327.602 279.462 327.659 279.519 327.716 279.462L330.511 278.093C330.568 278.093 330.625 278.036 330.625 278.036C331.253 277.693 331.595 277.237 331.652 276.837C331.652 276.837 331.652 276.837 331.652 276.78C331.652 276.552 331.595 276.381 331.481 276.152C331.481 276.152 331.481 276.152 331.481 276.095C331.424 276.038 331.424 275.981 331.367 275.924C331.367 275.924 331.367 275.924 331.31 275.867C331.253 275.81 331.196 275.753 331.139 275.753C330.967 275.753 330.796 275.753 330.625 275.753C330.169 275.753 329.769 275.696 329.37 275.582C329.313 275.582 329.199 275.525 329.142 275.525C328.857 275.468 328.571 275.411 328.343 275.296C328.115 275.182 327.887 275.125 327.659 275.011C327.43 274.897 327.202 274.726 327.031 274.612L326.974 274.555C326.917 274.555 326.86 274.497 326.86 274.497C326.746 274.44 326.746 274.326 326.632 274.269C326.632 274.212 326.575 274.212 326.575 274.155C326.461 273.984 326.403 273.813 326.346 273.641V273.584C326.289 273.47 326.289 273.356 326.289 273.242C324.92 272.843 323.095 272.9 321.84 273.47C321.668 273.584 321.668 273.641 321.611 273.641ZM323.551 282.087C323.494 282.087 323.437 282.144 323.437 282.144C323.38 282.144 323.323 282.201 323.323 282.201C323.266 282.258 323.209 282.258 323.152 282.316C323.095 282.373 323.038 282.43 322.981 282.43C322.866 282.487 322.809 282.601 322.752 282.715C322.752 282.715 322.752 282.715 322.695 282.772C322.638 282.829 322.638 282.886 322.581 282.886C322.581 282.886 322.581 282.886 322.581 282.943C322.467 283.114 322.467 283.286 322.467 283.457V283.514V283.571V283.628C322.467 283.685 322.467 283.685 322.524 283.742C322.524 283.799 322.581 283.856 322.581 283.913C322.581 283.97 322.638 284.027 322.695 284.027C322.752 284.142 322.866 284.199 322.923 284.313L322.981 284.37C323.095 284.427 323.209 284.541 323.323 284.598C323.38 284.598 323.38 284.655 323.437 284.655C323.437 284.655 323.494 284.655 323.494 284.712C323.494 284.712 323.551 284.712 323.551 284.769C323.608 284.769 323.665 284.826 323.722 284.826C323.893 284.883 324.007 284.941 324.179 284.998C324.236 284.998 324.236 284.998 324.293 285.055C324.464 285.112 324.635 285.169 324.806 285.169C324.92 285.169 324.977 285.226 325.034 285.226C325.148 285.226 325.263 285.283 325.377 285.283C325.377 285.283 325.377 285.283 325.434 285.283C325.491 285.283 325.605 285.283 325.662 285.283C325.719 285.283 325.719 285.283 325.776 285.283C325.833 285.283 325.89 285.283 325.947 285.283C326.004 285.283 326.061 285.283 326.118 285.283C326.461 285.283 326.746 285.283 327.031 285.226H327.088C327.202 285.226 327.259 285.226 327.373 285.169H327.43C327.602 285.112 327.773 285.112 327.944 285.055C328.058 285.055 328.115 284.998 328.229 284.998C328.286 284.998 328.4 284.941 328.457 284.883C328.514 284.883 328.571 284.826 328.628 284.826C328.685 284.826 328.742 284.769 328.742 284.769C328.8 284.769 328.857 284.712 328.857 284.712L328.914 284.655C328.914 284.655 328.971 284.655 328.971 284.598C328.971 284.598 329.028 284.598 329.028 284.541C329.085 284.541 329.142 284.484 329.142 284.427C329.199 284.37 329.256 284.313 329.313 284.313C329.427 284.256 329.484 284.142 329.541 284.027C329.598 283.97 329.598 283.913 329.655 283.913C329.655 283.913 329.655 283.913 329.655 283.856C329.769 283.685 329.769 283.514 329.769 283.343V283.286V283.229V283.171C329.769 283.114 329.769 283.114 329.712 283.057C329.655 282.943 329.598 282.829 329.541 282.772C329.484 282.658 329.37 282.601 329.313 282.487L329.256 282.43C329.142 282.373 329.028 282.258 328.914 282.201C328.857 282.201 328.857 282.144 328.8 282.144C328.8 282.144 328.742 282.144 328.742 282.087C328.742 282.087 328.685 282.087 328.685 282.03C328.628 282.03 328.571 281.973 328.514 281.973C328.343 281.916 328.229 281.859 328.058 281.802C328.001 281.802 328.001 281.802 327.944 281.745C327.773 281.688 327.602 281.631 327.43 281.631C327.259 281.574 327.031 281.574 326.86 281.517C326.86 281.517 326.86 281.517 326.803 281.517C326.746 281.517 326.632 281.517 326.575 281.517C326.518 281.517 326.518 281.517 326.461 281.517C326.403 281.517 326.346 281.517 326.289 281.517C326.232 281.517 326.232 281.517 326.175 281.517C325.833 281.517 325.491 281.517 325.148 281.574H325.091C324.977 281.574 324.92 281.574 324.806 281.631H324.749C324.578 281.688 324.407 281.688 324.236 281.745C324.122 281.745 324.064 281.802 323.95 281.802C323.893 281.802 323.779 281.859 323.722 281.916C323.722 281.916 323.665 281.916 323.665 281.973C323.665 281.973 323.608 281.973 323.608 282.03C323.608 282.03 323.608 282.03 323.551 282.087ZM329.142 284.655C329.085 284.655 329.085 284.655 329.085 284.655C329.142 284.655 329.142 284.655 329.142 284.655ZM329.142 284.655H329.085C329.142 284.655 329.142 284.655 329.142 284.655ZM316.477 283.742L313.682 285.112C313.625 285.112 313.682 285.169 313.739 285.169L322.467 289.563C322.524 289.563 322.581 289.62 322.638 289.62L325.434 288.25C325.491 288.25 325.491 288.193 325.548 288.193C326.175 287.851 326.518 287.394 326.575 286.995C326.575 286.995 326.575 286.995 326.575 286.938C326.575 286.71 326.518 286.538 326.403 286.31C326.403 286.31 326.403 286.31 326.403 286.253C326.346 286.196 326.346 286.139 326.289 286.082C326.289 286.082 326.289 286.082 326.232 286.025C326.175 285.968 326.118 285.911 326.061 285.911C325.89 285.911 325.719 285.911 325.548 285.911C325.091 285.911 324.692 285.854 324.293 285.739C324.236 285.739 324.122 285.682 324.064 285.682C323.779 285.625 323.494 285.568 323.266 285.454C323.038 285.34 322.809 285.283 322.581 285.169C322.353 285.055 322.125 284.884 321.954 284.769L321.897 284.712C321.84 284.712 321.783 284.655 321.783 284.655C321.668 284.598 321.668 284.484 321.554 284.427C321.554 284.37 321.497 284.37 321.497 284.313C321.383 284.142 321.326 283.97 321.269 283.799C321.269 283.799 321.269 283.742 321.212 283.742C321.155 283.628 321.155 283.514 321.155 283.4C319.786 283 317.96 283.057 316.705 283.628C316.591 283.742 316.534 283.742 316.477 283.742ZM308.547 274.44C308.49 274.44 308.433 274.497 308.433 274.497C308.376 274.497 308.319 274.555 308.319 274.555C308.262 274.612 308.205 274.612 308.148 274.669C308.091 274.726 308.034 274.783 307.977 274.783C307.863 274.84 307.806 274.954 307.748 275.068C307.748 275.068 307.748 275.068 307.691 275.125C307.634 275.182 307.634 275.239 307.577 275.239C307.577 275.239 307.577 275.239 307.577 275.296C307.463 275.468 307.463 275.639 307.463 275.81V275.867V275.924V275.981C307.463 276.038 307.463 276.038 307.52 276.095C307.52 276.152 307.577 276.209 307.577 276.267C307.577 276.324 307.634 276.381 307.691 276.381C307.748 276.495 307.863 276.552 307.92 276.666L307.977 276.723C308.091 276.78 308.205 276.894 308.319 276.951C308.376 276.951 308.376 277.008 308.433 277.008C308.433 277.008 308.49 277.008 308.49 277.065C308.49 277.065 308.547 277.065 308.547 277.123C308.604 277.123 308.661 277.18 308.718 277.18C308.889 277.237 309.004 277.294 309.175 277.351C309.232 277.351 309.232 277.351 309.289 277.408C309.46 277.465 309.631 277.522 309.802 277.522C309.859 277.522 309.973 277.579 310.03 277.579C310.145 277.579 310.259 277.636 310.373 277.636C310.487 277.636 310.544 277.636 310.601 277.636C310.658 277.636 310.658 277.636 310.715 277.636C310.772 277.636 310.829 277.636 310.886 277.636C310.943 277.636 311 277.636 311.057 277.636C311.4 277.636 311.685 277.636 311.97 277.579H312.027C312.141 277.579 312.198 277.579 312.312 277.522H312.369C312.541 277.465 312.712 277.465 312.883 277.408C312.997 277.408 313.054 277.351 313.168 277.351C313.225 277.351 313.339 277.294 313.396 277.237C313.453 277.237 313.51 277.18 313.567 277.18C313.625 277.18 313.682 277.123 313.682 277.123C313.739 277.123 313.796 277.065 313.853 277.065C313.853 277.065 313.91 277.065 313.967 277.008V276.951C313.967 276.951 313.967 276.951 314.024 276.894C314.081 276.894 314.081 276.837 314.138 276.78C314.195 276.723 314.252 276.666 314.309 276.666C314.423 276.609 314.48 276.495 314.537 276.381C314.594 276.324 314.594 276.267 314.651 276.267C314.651 276.267 314.651 276.267 314.651 276.209C314.765 276.038 314.765 275.867 314.765 275.696V275.639V275.582V275.525C314.765 275.468 314.766 275.468 314.708 275.411C314.651 275.296 314.594 275.182 314.537 275.125C314.48 275.011 314.366 274.954 314.309 274.84L314.252 274.783C314.138 274.726 314.024 274.612 313.91 274.555C313.853 274.555 313.853 274.497 313.796 274.497C313.796 274.497 313.739 274.497 313.739 274.44C313.739 274.44 313.682 274.44 313.682 274.383C313.625 274.383 313.567 274.326 313.51 274.326C313.339 274.269 313.225 274.212 313.054 274.155C312.997 274.155 312.997 274.155 312.94 274.098C312.769 274.041 312.598 273.984 312.427 273.984C312.255 273.927 312.027 273.927 311.856 273.87C311.742 273.87 311.685 273.87 311.628 273.87C311.571 273.87 311.571 273.87 311.514 273.87C311.457 273.87 311.4 273.87 311.343 273.87C311.286 273.87 311.286 273.87 311.228 273.87C310.886 273.87 310.544 273.87 310.202 273.927H310.145C310.03 273.927 309.973 273.927 309.859 273.984H309.802C309.631 274.041 309.46 274.041 309.289 274.098C309.175 274.098 309.118 274.155 309.004 274.155C308.947 274.155 308.832 274.212 308.775 274.269C308.775 274.269 308.718 274.269 308.718 274.326C308.718 274.326 308.661 274.326 308.661 274.383C308.661 274.383 308.604 274.44 308.547 274.44ZM314.195 277.065C314.138 277.065 314.138 277.065 314.138 277.065C314.138 277.008 314.138 277.065 314.195 277.065ZM314.195 277.065H314.138C314.138 277.008 314.138 277.065 314.195 277.065ZM301.53 276.152L298.735 277.522C298.678 277.522 298.621 277.579 298.678 277.636L307.406 282.03C307.463 282.03 307.52 282.03 307.577 282.03L310.373 280.661C310.43 280.661 310.487 280.604 310.487 280.604C311.114 280.261 311.457 279.805 311.514 279.405C311.514 279.405 311.514 279.405 311.514 279.348C311.514 279.12 311.457 278.949 311.343 278.72C311.343 278.72 311.343 278.72 311.343 278.663C311.286 278.606 311.286 278.549 311.228 278.492C311.228 278.492 311.228 278.492 311.171 278.435C311.114 278.378 311.057 278.321 311 278.321C310.829 278.321 310.658 278.321 310.487 278.321C310.03 278.321 309.631 278.264 309.232 278.15C309.175 278.15 309.061 278.093 309.004 278.093C308.718 278.036 308.433 277.978 308.205 277.864C307.977 277.75 307.748 277.693 307.52 277.579C307.292 277.465 307.064 277.294 306.893 277.18C306.893 277.18 306.893 277.123 306.836 277.123C306.779 277.123 306.722 277.065 306.722 277.065C306.608 277.008 306.55 276.894 306.493 276.837C306.493 276.78 306.436 276.78 306.436 276.723C306.322 276.552 306.208 276.438 306.151 276.267V276.209C306.094 276.095 306.094 275.981 306.094 275.867C304.725 275.468 302.899 275.525 301.644 276.095C301.587 276.152 301.53 276.152 301.53 276.152ZM321.783 277.579L317.732 279.576C317.561 279.633 317.561 279.805 317.732 279.862L318.188 280.09C318.36 280.147 318.645 280.147 318.816 280.09L322.866 278.093C323.038 278.036 323.038 277.864 322.866 277.807L322.41 277.579C322.239 277.465 321.954 277.465 321.783 277.579ZM318.93 279.348L313.282 279.006C313.054 279.006 312.826 279.063 312.826 279.177L312.769 279.519C312.769 279.633 312.883 279.748 313.168 279.748L318.816 280.09C319.044 280.09 319.272 280.033 319.272 279.919L319.329 279.576C319.329 279.462 319.158 279.405 318.93 279.348ZM319.044 282.715L319.672 282.658C319.9 282.658 320.071 282.544 320.071 282.43L319.444 279.633C319.444 279.519 319.215 279.405 318.987 279.462L318.36 279.519C318.131 279.519 317.96 279.633 317.96 279.748L318.588 282.544C318.588 282.658 318.816 282.715 319.044 282.715Z" fill="white"/>
<path opacity="0.34" d="M110.874 205.562L73.7924 224.679L35.2273 205.448L72.6514 186.445L110.874 205.562Z" fill="#33B3C4"/>
<path d="M107.794 199.969L70.5984 218.516L33.4595 199.969L70.5984 181.366L107.794 199.969Z" fill="#95D94C"/>
<path d="M33.459 199.969V203.336L70.6549 221.883L70.5979 218.516L33.459 199.969Z" fill="#35C473"/>
<path d="M107.794 199.969V203.336L70.6547 221.883L70.5977 218.516L107.794 199.969Z" fill="#358C11"/>
<path d="M72.9925 194.263C72.5361 194.548 71.9656 194.833 71.5092 195.119C69.5125 196.545 69.7407 198.714 72.0797 200.14C72.3079 200.255 72.3649 200.426 72.6502 200.483C73.677 200.996 74.7039 201.453 76.0161 201.738C76.3583 201.852 76.7577 201.852 77.1 201.967C76.6436 202.366 76.0161 202.651 75.4456 202.937C75.3885 202.994 75.3885 203.051 75.3315 203.051C74.9892 204.82 74.6469 206.589 74.2475 208.358C73.1636 207.331 72.1367 206.361 70.9957 205.333C70.14 205.733 69.3984 206.189 68.5426 206.646C67.4587 207.274 66.0895 207.787 64.4922 208.016C61.2404 208.586 57.2469 208.244 54.4515 207.103C53.0253 206.475 51.5991 205.847 50.6863 205.048C50.0017 204.477 49.6024 203.793 49.3171 203.165C49.146 202.309 49.2601 201.453 49.8876 200.711C50.2299 200.198 50.8574 199.741 51.485 199.342C54.2233 197.858 56.9046 196.374 59.643 194.89C61.2404 193.977 63.5794 193.407 66.0325 193.293C66.2036 193.293 66.4318 193.293 66.603 193.235C66.603 193.235 66.66 193.235 66.7171 193.235C68.942 193.293 71.1669 193.635 72.9925 194.263ZM90.9629 194.206C91.6475 195.176 91.5334 196.26 90.5635 197.116C90.1642 197.515 89.4796 197.801 88.9091 198.143C89.8219 198.371 90.7917 198.543 91.7045 198.771C92.3891 198.942 92.218 199.513 91.4763 199.57C89.4226 199.798 87.4258 199.969 85.3721 200.14C85.0298 200.198 84.8586 200.369 84.6304 200.483C83.0331 201.339 80.5229 201.681 78.1839 201.453C76.7006 201.282 75.3315 200.882 74.3046 200.369C72.9925 199.798 72.0226 198.999 71.6803 198.2C71.2239 197.173 71.7944 196.032 73.1636 195.29C74.818 194.377 76.4724 193.464 78.1839 192.551C78.8685 192.151 79.7813 191.866 80.7511 191.638C82.8049 191.238 85.4862 191.409 87.4258 192.037C87.7681 192.151 87.9393 192.265 88.2245 192.379C89.4226 192.893 90.4494 193.464 90.9629 194.206ZM87.1977 193.064C85.1439 192.265 81.5498 192.094 79.7813 192.95C77.8987 193.977 76.0161 195.005 74.1905 196.032C72.9925 196.888 73.0495 198.086 74.2475 198.999C74.761 199.399 75.5597 199.741 76.3013 200.026C78.241 200.768 81.1505 200.768 82.919 200.026C83.5465 199.798 83.8888 199.342 84.7445 199.284C85.8855 199.17 87.0265 199.056 88.2245 198.942C87.8252 198.828 87.3688 198.771 86.9695 198.657C86.5131 198.543 86.399 198.257 86.6272 198.029C87.597 197.458 88.9091 196.945 89.3655 196.203C89.9931 195.233 89.4796 194.091 87.9393 193.35C87.7111 193.293 87.4258 193.178 87.1977 193.064Z" fill="white"/>
<path opacity="0.34" d="M244.083 275.697L213.106 291.733L180.873 275.64L212.136 259.776L244.083 275.697Z" fill="#33B3C4"/>
<path d="M242.486 271.53L211.68 286.938L180.874 271.53L211.68 256.18L242.486 271.53Z" fill="#FFD62C"/>
<path d="M180.873 271.53V274.384L211.679 289.734V286.938L180.873 271.53Z" fill="#FFB000"/>
<path d="M242.487 271.53V274.384L211.68 289.734V286.938L242.487 271.53Z" fill="#E08910"/>
<path d="M209.684 270.617C207.345 271.759 205.12 271.017 205.12 271.017L205.234 270.96L210.996 268.107C211.053 268.049 211.966 269.476 209.684 270.617ZM210.825 271.188C210.939 271.131 210.939 271.017 210.825 270.96C210.71 270.903 210.482 270.903 210.311 270.96C210.197 271.017 210.197 271.131 210.311 271.188C210.482 271.245 210.71 271.245 210.825 271.188ZM211.794 271.645C211.908 271.588 211.908 271.473 211.794 271.416C211.68 271.359 211.452 271.359 211.281 271.416C211.167 271.473 211.167 271.588 211.281 271.645C211.395 271.759 211.623 271.759 211.794 271.645ZM212.479 272.044C212.308 272.101 212.308 272.215 212.479 272.329C212.65 272.387 212.878 272.387 212.992 272.329C213.164 272.272 213.164 272.158 212.992 272.044C212.878 271.93 212.593 271.93 212.479 272.044ZM212.65 270.047L214.59 271.017C217.499 270.275 220.979 270.789 224.516 272.387L225.486 271.93L227.312 272.843L214.076 279.463L212.251 278.55L213.392 277.979C210.14 276.21 209.227 274.441 210.653 273.014L208.714 272.044C205.804 272.786 202.267 272.272 198.673 270.617L197.532 271.188L195.707 270.275L208.942 263.655L210.767 264.568L209.798 265.025C213.164 266.851 214.133 268.62 212.65 270.047ZM214.362 271.816L211.053 270.161L211.338 269.933C213.221 268.392 211.224 266.68 208.942 265.482L199.586 270.161C202.096 271.302 205.462 272.272 208.543 271.359L208.942 271.245L212.251 272.9L211.966 273.128C210.14 274.669 212.023 276.324 214.247 277.522L215.331 277.009L215.046 275.24L214.704 273.014L219.154 273.185L222.691 273.3L223.604 272.843C221.15 271.702 217.842 270.789 214.761 271.702L214.362 271.816Z" fill="white"/>
<path d="M340.896 151.063C353.332 158.482 363.145 176.172 362.916 190.553C362.802 197.686 360.178 202.651 356.128 204.991L348.369 208.757C345.631 208.472 343.12 205.048 339.983 203.165C327.546 195.746 317.734 178.056 317.962 163.675C318.019 159.11 316.878 154.944 318.703 152.319L327.261 148.267C331.083 147.183 335.818 148.039 340.896 151.063Z" fill="#33B3C4"/>
<path d="M350.247 207.871C359.178 202.86 359.421 186.318 350.79 170.925C342.158 155.531 327.921 147.114 318.99 152.125C310.059 157.136 309.816 173.677 318.447 189.071C327.079 204.464 341.316 212.881 350.247 207.871Z" fill="#74C8D6"/>
<path d="M335.076 200.712C325.207 194.834 317.391 180.796 317.619 169.326C317.733 162.535 320.7 158.255 325.093 157.057C319.673 157.399 315.908 161.964 315.794 169.611C315.565 181.024 323.381 195.063 333.251 200.998C337.244 203.394 340.952 204.022 343.976 203.223C341.295 203.451 338.271 202.652 335.076 200.712Z" fill="#BFF7F3"/>
<path d="M335.819 159.338C331.826 156.941 328.118 156.313 325.094 157.112C320.644 158.254 317.735 162.591 317.621 169.381C317.393 180.795 325.208 194.833 335.078 200.768C338.273 202.708 341.353 203.507 343.977 203.336C349.397 202.993 353.162 198.428 353.276 190.781C353.505 179.254 345.689 165.216 335.819 159.338Z" fill="white"/>
<path d="M334.677 162.363C335.418 162.819 335.989 163.847 335.989 164.76C335.989 165.616 335.361 165.959 334.62 165.502C333.878 165.045 333.307 164.018 333.307 163.162C333.364 162.248 333.935 161.906 334.677 162.363Z" fill="#0F6B93"/>
<path d="M334.106 194.548C334.848 195.004 335.418 196.032 335.418 196.945C335.418 197.801 334.791 198.144 334.049 197.687C333.307 197.231 332.736 196.203 332.736 195.347C332.736 194.434 333.364 194.091 334.106 194.548Z" fill="#0F6B93"/>
<path d="M320.529 170.124C321.271 170.58 321.841 171.608 321.841 172.521C321.841 173.377 321.214 173.72 320.472 173.263C319.73 172.806 319.159 171.779 319.159 170.866C319.159 170.009 319.787 169.724 320.529 170.124Z" fill="#0F6B93"/>
<path d="M348.311 186.73C349.053 187.186 349.624 188.214 349.624 189.127C349.624 189.983 348.996 190.326 348.254 189.869C347.512 189.412 346.942 188.385 346.942 187.472C346.942 186.672 347.569 186.33 348.311 186.73Z" fill="#0F6B93"/>
<path d="M345.459 192.322C345.231 192.665 344.717 192.551 344.261 192.037L333.25 180.395C333.022 180.167 333.307 179.825 333.25 179.482C333.25 179.482 338.727 171.607 338.955 171.664C339.412 171.779 340.381 172.806 340.096 173.319L335.076 180.338L345.059 190.782C345.459 191.352 345.63 191.98 345.459 192.322Z" fill="#0F6B93"/>
<path d="M334.448 177.77C335.532 178.398 336.388 179.939 336.33 181.194C336.33 182.45 335.418 182.906 334.334 182.279C333.25 181.651 332.394 180.11 332.451 178.855C332.508 177.599 333.364 177.143 334.448 177.77Z" fill="#3DBFC9"/>
<path d="M334.448 179.368C334.733 179.539 334.961 179.996 334.961 180.338C334.961 180.681 334.733 180.795 334.391 180.624C334.105 180.453 333.877 179.996 333.877 179.654C333.877 179.368 334.162 179.197 334.448 179.368Z" fill="white"/>
<defs>
<linearGradient id="paint0_linear" x1="372" y1="175" x2="30.1558" y2="251.581" gradientUnits="userSpaceOnUse">
<stop stop-color="#0B4275" stop-opacity="0.62"/>
<stop offset="0.635417" stop-color="#0B4275" stop-opacity="0.04"/>
</linearGradient>
</defs>
</svg>
