<svg width="182" height="84" viewBox="0 0 182 84" fill="none" xmlns="http://www.w3.org/2000/svg">
<path d="M147.2 78.6H176.2V76.6H147.2C144 76.6 141 74.9 139.4 72.1L100.9 5.5C98.9002 2.1 95.3002 0 91.4002 0H0.000183105V2H91.4002C94.6002 2 97.6002 3.7 99.2002 6.5L137.7 73.1C139.7 76.5 143.3 78.6 147.2 78.6Z" fill="#E5231E"/>
<path d="M176.2 83.1C173.163 83.1 170.7 80.6375 170.7 77.6C170.7 74.5624 173.163 72.1 176.2 72.1C179.238 72.1 181.7 74.5624 181.7 77.6C181.7 80.6375 179.238 83.1 176.2 83.1Z" fill="#E5231E"/>
</svg>
