<svg width="350" height="50" viewBox="0 0 350 50" fill="none" xmlns="http://www.w3.org/2000/svg">
<path d="M350 0H0V2H350V0Z" fill="#0B4275"/>
<path d="M188.302 32V2L186.302 2V32H188.302Z" fill="#0B4275"/>
<path d="M180.538 43.3865C182.492 47.039 187.037 48.4161 190.689 46.4623C194.342 44.5084 195.719 39.9635 193.765 36.311C191.811 32.6585 187.266 31.2814 183.614 33.2353C179.961 35.1891 178.584 39.734 180.538 43.3865Z" fill="#0B4275"/>
<path d="M178.657 39.8247C178.657 35.1247 182.457 31.3247 187.157 31.3247C191.857 31.3247 195.657 35.1247 195.657 39.8247C195.657 44.5247 191.857 48.3247 187.157 48.3247C182.457 48.4247 178.657 44.5247 178.657 39.8247ZM193.657 39.8247C193.657 36.2247 190.757 33.3247 187.157 33.3247C183.557 33.3247 180.657 36.2247 180.657 39.8247C180.657 43.4247 183.557 46.3247 187.157 46.3247C190.757 46.3247 193.657 43.4247 193.657 39.8247Z" fill="#0B4275"/>
</svg>
