<svg width="125" height="72" viewBox="0 0 125 72" fill="none" xmlns="http://www.w3.org/2000/svg">
<path d="M2.78711 67V54.1504H4.8877V67H2.78711ZM12.7275 67H10.627V55.9521H6.84766V54.1504H16.5068V55.9521H12.7275V67ZM17.4209 63.0537V61.2959H21.9385V63.0537H17.4209ZM30.1475 67L29.7344 65.6465H29.6641C29.1953 66.2383 28.7236 66.6426 28.249 66.8594C27.7744 67.0703 27.165 67.1758 26.4209 67.1758C25.4658 67.1758 24.7188 66.918 24.1797 66.4023C23.6465 65.8867 23.3799 65.1572 23.3799 64.2139C23.3799 63.2119 23.752 62.4561 24.4961 61.9463C25.2402 61.4365 26.374 61.1582 27.8975 61.1113L29.5762 61.0586V60.54C29.5762 59.9189 29.4297 59.4561 29.1367 59.1514C28.8496 58.8408 28.4014 58.6855 27.792 58.6855C27.2939 58.6855 26.8164 58.7588 26.3594 58.9053C25.9023 59.0518 25.4629 59.2246 25.041 59.4238L24.373 57.9473C24.9004 57.6719 25.4775 57.4639 26.1045 57.3232C26.7314 57.1768 27.3232 57.1035 27.8799 57.1035C29.1162 57.1035 30.0479 57.373 30.6748 57.9121C31.3076 58.4512 31.624 59.2979 31.624 60.4521V67H30.1475ZM27.0713 65.5938C27.8213 65.5938 28.4219 65.3857 28.873 64.9697C29.3301 64.5479 29.5586 63.959 29.5586 63.2031V62.3594L28.3105 62.4121C27.3379 62.4473 26.6289 62.6113 26.1836 62.9043C25.7441 63.1914 25.5244 63.6338 25.5244 64.2314C25.5244 64.665 25.6533 65.002 25.9111 65.2422C26.1689 65.4766 26.5557 65.5938 27.0713 65.5938ZM33.0303 57.2793H35.2803L37.2578 62.79C37.5566 63.5752 37.7559 64.3135 37.8555 65.0049H37.9258C37.9785 64.6826 38.0752 64.293 38.2158 63.8359C38.3564 63.373 39.1006 61.1875 40.4482 57.2793H42.6807L38.5234 68.292C37.7676 70.3135 36.5078 71.3242 34.7441 71.3242C34.2871 71.3242 33.8418 71.2744 33.4082 71.1748V69.54C33.7188 69.6104 34.0732 69.6455 34.4717 69.6455C35.4678 69.6455 36.168 69.0684 36.5723 67.9141L36.9326 67L33.0303 57.2793ZM51.4609 57.2793V58.8965H48.2969V67H46.2227V58.8965H43.0586V57.2793H51.4609ZM57.2529 67.1758C55.7822 67.1758 54.6631 66.748 53.8955 65.8926C53.1338 65.0312 52.7529 63.7979 52.7529 62.1924C52.7529 60.5576 53.1514 59.3008 53.9482 58.4219C54.751 57.543 55.9082 57.1035 57.4199 57.1035C58.4453 57.1035 59.3682 57.2939 60.1885 57.6748L59.5645 59.3359C58.6914 58.9961 57.9707 58.8262 57.4023 58.8262C55.7207 58.8262 54.8799 59.9424 54.8799 62.1748C54.8799 63.2646 55.0879 64.085 55.5039 64.6357C55.9258 65.1807 56.541 65.4531 57.3496 65.4531C58.2695 65.4531 59.1396 65.2246 59.96 64.7676V66.5693C59.5908 66.7861 59.1953 66.9414 58.7734 67.0352C58.3574 67.1289 57.8506 67.1758 57.2529 67.1758ZM70.8672 62.1221C70.8672 63.71 70.46 64.9492 69.6455 65.8398C68.8311 66.7305 67.6973 67.1758 66.2441 67.1758C65.3359 67.1758 64.5332 66.9707 63.8359 66.5605C63.1387 66.1504 62.6025 65.5615 62.2275 64.7939C61.8525 64.0264 61.665 63.1357 61.665 62.1221C61.665 60.5459 62.0693 59.3154 62.8779 58.4307C63.6865 57.5459 64.8262 57.1035 66.2969 57.1035C67.7031 57.1035 68.8164 57.5576 69.6367 58.4658C70.457 59.3682 70.8672 60.5869 70.8672 62.1221ZM63.792 62.1221C63.792 64.3662 64.6211 65.4883 66.2793 65.4883C67.9199 65.4883 68.7402 64.3662 68.7402 62.1221C68.7402 59.9014 67.9141 58.791 66.2617 58.791C65.3945 58.791 64.7646 59.0781 64.3721 59.6523C63.9854 60.2266 63.792 61.0498 63.792 62.1221ZM78.1797 67.1758C76.9492 67.1758 75.9941 66.7334 75.3145 65.8486H75.1914C75.2734 66.6689 75.3145 67.167 75.3145 67.3428V71.3242H73.249V57.2793H74.9189C74.9658 57.4609 75.0625 57.8945 75.209 58.5801H75.3145C75.959 57.5957 76.9258 57.1035 78.2148 57.1035C79.4277 57.1035 80.3711 57.543 81.0449 58.4219C81.7246 59.3008 82.0645 60.5342 82.0645 62.1221C82.0645 63.71 81.7188 64.9492 81.0273 65.8398C80.3418 66.7305 79.3926 67.1758 78.1797 67.1758ZM77.6787 58.791C76.8584 58.791 76.2578 59.0312 75.877 59.5117C75.502 59.9922 75.3145 60.7598 75.3145 61.8145V62.1221C75.3145 63.3057 75.502 64.1641 75.877 64.6973C76.252 65.2246 76.8643 65.4883 77.7139 65.4883C78.4287 65.4883 78.9795 65.1953 79.3662 64.6094C79.7529 64.0234 79.9463 63.1885 79.9463 62.1045C79.9463 61.0146 79.7529 60.1914 79.3662 59.6348C78.9854 59.0723 78.4229 58.791 77.6787 58.791ZM88.3838 67.1758C86.9131 67.1758 85.7939 66.748 85.0264 65.8926C84.2646 65.0312 83.8838 63.7979 83.8838 62.1924C83.8838 60.5576 84.2822 59.3008 85.0791 58.4219C85.8818 57.543 87.0391 57.1035 88.5508 57.1035C89.5762 57.1035 90.499 57.2939 91.3193 57.6748L90.6953 59.3359C89.8223 58.9961 89.1016 58.8262 88.5332 58.8262C86.8516 58.8262 86.0107 59.9424 86.0107 62.1748C86.0107 63.2646 86.2188 64.085 86.6348 64.6357C87.0566 65.1807 87.6719 65.4531 88.4805 65.4531C89.4004 65.4531 90.2705 65.2246 91.0908 64.7676V66.5693C90.7217 66.7861 90.3262 66.9414 89.9043 67.0352C89.4883 67.1289 88.9814 67.1758 88.3838 67.1758ZM95.3535 57.2793V62.2627C95.3535 62.8428 95.3066 63.6953 95.2129 64.8203L100.091 57.2793H102.613V67H100.627V62.1045C100.627 61.835 100.642 61.3984 100.671 60.7949C100.706 60.1914 100.735 59.752 100.759 59.4766L95.8984 67H93.376V57.2793H95.3535ZM107.623 57.2793V61.1816H112.202V57.2793H114.268V67H112.202V62.8076H107.623V67H105.558V57.2793H107.623ZM123.514 57.2793V58.8965H119.295V67H117.229V57.2793H123.514Z" fill="#5DCBE9"/>
<path d="M111.832 15.5333C109.211 12.5542 105.47 9.88809 100.713 7.60154C91.0086 2.94305 78.1236 0.381348 64.4315 0.381348C50.7394 0.381348 37.8544 2.94305 28.1503 7.60154C23.3932 9.88809 19.6521 12.5542 17.0314 15.5333C14.2683 18.6738 12.863 22.0229 12.863 25.486C12.863 28.949 14.2683 32.2982 17.0314 35.4387C19.6521 38.4178 23.3932 41.0839 28.1503 43.3704C37.8544 48.0289 50.7394 50.5906 64.4315 50.5906C78.1236 50.5906 91.0086 48.0289 100.713 43.3704C105.47 41.0839 109.211 38.4178 111.832 35.4387C114.595 32.2982 116 28.949 116 25.486C116 22.0229 114.595 18.6738 111.832 15.5333ZM100.124 42.156C90.6003 46.7291 77.9242 49.2434 64.4315 49.2434C50.9388 49.2434 38.2627 46.7291 28.739 42.156C19.3768 37.6588 14.2114 31.7384 14.2114 25.486C14.2114 19.2335 19.3673 13.3132 28.739 8.81597C38.2627 4.24287 50.9388 1.72861 64.4315 1.72861C77.9242 1.72861 90.6003 4.24287 100.124 8.81597C109.486 13.3132 114.652 19.2335 114.652 25.486C114.652 31.7384 109.496 37.6588 100.124 42.156Z" fill="#5DCBE9"/>
<path d="M41.8328 25.1538C41.8328 25.1538 46.0866 20.4574 47.4065 18.8255C49.0681 16.7761 53.8632 10.666 53.8632 10.666L47.283 10.9791C47.283 10.9791 43.0387 16.4251 41.7094 18.0001C40.2471 19.7363 36.1357 24.0058 36.1357 24.0058L36.0122 12.7438L30.7614 14.3283L30.6379 35.7707L36.0787 37.412L36.2021 26.2165C36.2021 26.2165 40.6744 30.8655 42.0892 32.4784C43.6559 34.2716 48.0996 39.8789 48.0996 39.8789L55.0027 40.5715C55.0027 40.5715 49.296 33.8446 47.4065 31.4632C46.0772 29.8218 41.8328 25.1538 41.8328 25.1538Z" fill="#5DCBE9"/>
<path d="M63.5485 36.4159C60.4436 36.4159 58.6775 34.9643 58.6775 34.9643C58.6775 34.9643 54.6231 32.1843 54.8794 25.856C55.1358 19.5277 57.0728 17.744 58.744 16.1785C60.8329 14.2145 64.8209 14.4043 64.8209 14.4043L69.1222 14.594V10.2961C69.1222 10.2961 65.3241 10.1063 63.4916 10.1063C62.2857 10.1063 60.1398 9.91654 56.5316 12.0039C52.8569 14.1291 50.2648 19.5941 50.1413 26.1122C50.0179 32.6303 53.3032 36.9946 55.9619 38.8922C58.6205 40.7898 63.3681 40.9131 63.3681 40.9131L69.2552 40.8467L69.1317 36.4159C69.1127 36.4159 66.644 36.4159 63.5485 36.4159Z" fill="#5DCBE9"/>
<path d="M74.1166 35.2111L74.24 26.2261L70.6983 26.359L70.6318 40.7804L73.9931 40.4009L80.6398 30.9131L80.5068 39.509L83.9251 38.9397V26.0364L80.7632 26.1028L74.1166 35.2111Z" fill="#5DCBE9"/>
<path d="M77.155 10.5427V14.9071L85.3874 15.6661L85.5773 38.6929L90.2014 37.6208L90.078 16.1785L98.3103 17.0608V13.9583C98.3103 13.9583 94.9585 13.2657 87.7422 11.9944C80.5068 10.7325 77.155 10.5427 77.155 10.5427Z" fill="#5DCBE9"/>
</svg>
